<svg xmlns="http://www.w3.org/2000/svg" width="28" height="28" viewBox="0 0 28 28" fill="none">
  <circle cx="14" cy="14" r="14" fill="#FF8383"/>
  <rect x="7.5" y="5.5" width="13" height="5" stroke="black" stroke-linejoin="round"/>
  <circle cx="11.5" cy="13.5" r="1" fill="#D9D9D9" stroke="black"/>
  <circle cx="16.5" cy="13.5" r="1" fill="#D9D9D9" stroke="black"/>
  <rect x="8" y="11" width="1" height="7" fill="black"/>
  <rect x="19" y="11" width="1" height="7" fill="black"/>
  <path d="M10 16C10 15.1716 10.6716 14.5 11.5 14.5C12.3284 14.5 13 15.1716 13 16V17C13 17.8284 12.3284 18.5 11.5 18.5C10.6716 18.5 10 17.8284 10 17V16Z" fill="white" stroke="black"/>
  <path d="M15 16C15 15.1716 15.6716 14.5 16.5 14.5C17.3284 14.5 18 15.1716 18 16V17C18 17.8284 17.3284 18.5 16.5 18.5C15.6716 18.5 15 17.8284 15 17V16Z" fill="white" stroke="black"/>
  <rect x="7.5" y="17.5" width="13" height="5" fill="#FFC75B" stroke="black" stroke-linejoin="round"/>
  <rect x="8" y="6" width="2" height="4" fill="#FF1A1A"/>
  <rect x="10" y="6" width="2" height="4" fill="white"/>
  <rect x="14" y="6" width="2" height="4" fill="white"/>
  <rect x="12" y="6" width="2" height="4" fill="#FF1A1A"/>
  <rect x="16" y="6" width="2" height="4" fill="#FF1A1A"/>
  <rect x="18" y="6" width="2" height="4" fill="white"/>
</svg>