<svg xmlns="http://www.w3.org/2000/svg" width="72" height="72" viewBox="0 0 72 72" fill="none">
  <path d="M24 36L0 52L48 68L72 52L24 36Z" fill="#F6E0D0"/>
  <path d="M44 37.5L48 39L51 37" stroke="black" stroke-width="2"/>
  <path d="M44 43.5L48 45L51 43" stroke="black" stroke-width="2"/>
  <path d="M44 49.5L48 51L51 49" stroke="black" stroke-width="2"/>
  <path d="M44 55.5L48 57L51 55" stroke="black" stroke-width="2"/>
  <path d="M44 61.5L48 63L51 61" stroke="black" stroke-width="2"/>
  <path d="M44 34V69" stroke="black" stroke-width="2"/>
  <path d="M48 35L48 71" stroke="black" stroke-width="2"/>
  <path d="M51 33L51 69" stroke="black" stroke-width="2"/>
  <path d="M1 23.5L5 25L8 23" stroke="black" stroke-width="2"/>
  <path d="M1 29.5L5 31L8 29" stroke="black" stroke-width="2"/>
  <path d="M1 35.5L5 37L8 35" stroke="black" stroke-width="2"/>
  <path d="M1 41.5L5 43L8 41" stroke="black" stroke-width="2"/>
  <path d="M1 47.5L5 49L8 47" stroke="black" stroke-width="2"/>
  <path d="M1 20V55" stroke="black" stroke-width="2"/>
  <path d="M5 21L5 57" stroke="black" stroke-width="2"/>
  <path d="M8 19L8 52" stroke="black" stroke-width="2"/>
  <path d="M21 10.5L25 12L28 10" stroke="black" stroke-width="2"/>
  <path d="M21 16.5L25 18L28 16" stroke="black" stroke-width="2"/>
  <path d="M21 22.5L25 24L28 22" stroke="black" stroke-width="2"/>
  <path d="M21 28.5L25 30L28 28" stroke="black" stroke-width="2"/>
  <path d="M21 34.5L25 36L28 34" stroke="black" stroke-width="2"/>
  <path d="M21 7V39" stroke="black" stroke-width="2"/>
  <path d="M25 8L25 40" stroke="black" stroke-width="2"/>
  <path d="M28 6L28 38" stroke="black" stroke-width="2"/>
  <path d="M64 24.5L68 26L71 24" stroke="black" stroke-width="2"/>
  <path d="M64 30.5L68 32L71 30" stroke="black" stroke-width="2"/>
  <path d="M64 36.5L68 38L71 36" stroke="black" stroke-width="2"/>
  <path d="M64 42.5L68 44L71 42" stroke="black" stroke-width="2"/>
  <path d="M64 48.5L68 50L71 48" stroke="black" stroke-width="2"/>
  <path d="M64 21V53" stroke="black" stroke-width="2"/>
  <path d="M68 22L68 55" stroke="black" stroke-width="2"/>
  <path d="M71 20L71 56" stroke="black" stroke-width="2"/>
  <path d="M72 56V52L48 68L0 52V56L48 72L72 56Z" fill="#EDCDB7"/>
  <path d="M24 0L0 16L48 32L72 16L24 0Z" fill="#EB3F36"/>
  <path d="M72 20V16L48 32L0 16V20L48 36L72 20Z" fill="#D12F2E"/>
  <ellipse cx="25.5" cy="56" rx="1.5" ry="1" fill="black"/>
  <rect x="25" y="48" width="1" height="8" fill="#BCBCBC"/>
  <path d="M27.1158 48.7991L23.8838 47.201" stroke="#BCBCBC"/>
  <path d="M28.5 49C28.5 49.5523 28.0523 50 27.5 50C26.9477 50 26.5 49.5523 26.5 49C26.5 48.4477 26.9477 48 27.5 48C28.0523 48 28.5 48.4477 28.5 49Z" fill="#D9D9D9"/>
</svg>