<svg xmlns="http://www.w3.org/2000/svg" width="92" height="41" viewBox="0 0 92 41" fill="none">
  <g filter="url(#filter0_d_16_2195)">
    <ellipse cx="46" cy="30.5" rx="44" ry="8.5" fill="#454A54"/>
    <path d="M89.5 28.5C89.5 28.8984 89.2931 29.3489 88.7628 29.8495C88.2326 30.35 87.423 30.8566 86.3345 31.3538C84.1606 32.3467 80.9833 33.2534 77.0179 34.0195C69.0951 35.55 58.1284 36.5 46 36.5C33.8716 36.5 22.9049 35.55 14.9821 34.0195C11.0167 33.2534 7.8394 32.3467 5.66546 31.3538C4.57698 30.8566 3.76737 30.35 3.23716 29.8495C2.70692 29.3489 2.5 28.8984 2.5 28.5C2.5 28.1016 2.70692 27.6511 3.23716 27.1505C3.76737 26.65 4.57698 26.1434 5.66546 25.6462C7.8394 24.6533 11.0167 23.7466 14.9821 22.9805C22.9049 21.45 33.8716 20.5 46 20.5C58.1284 20.5 69.0951 21.45 77.0179 22.9805C80.9833 23.7466 84.1606 24.6533 86.3345 25.6462C87.423 26.1434 88.2326 26.65 88.7628 27.1505C89.2931 27.6511 89.5 28.1016 89.5 28.5Z" fill="#959AA4" stroke="#80858F"/>
    <path d="M72.5 28C72.5 28.1485 72.4205 28.3613 72.116 28.6369C71.8127 28.9114 71.337 29.1995 70.6777 29.4882C69.3627 30.0639 67.4289 30.5943 65.0008 31.0439C60.153 31.9416 53.4349 32.5 46 32.5C38.5651 32.5 31.847 31.9416 26.9992 31.0439C24.5711 30.5943 22.6373 30.0639 21.3223 29.4882C20.663 29.1995 20.1873 28.9114 19.884 28.6369C19.5795 28.3613 19.5 28.1485 19.5 28C19.5 27.8515 19.5795 27.6387 19.884 27.3631C20.1873 27.0886 20.663 26.8005 21.3223 26.5118C22.6373 25.9361 24.5711 25.4057 26.9992 24.9561C31.847 24.0584 38.5651 23.5 46 23.5C53.4349 23.5 60.153 24.0584 65.0008 24.9561C67.4289 25.4057 69.3627 25.9361 70.6777 26.5118C71.337 26.8005 71.8127 27.0886 72.116 27.3631C72.4205 27.6387 72.5 27.8515 72.5 28Z" fill="#BABCC9" stroke="#DDE1E9"/>
    <path d="M55.5036 27.9753C55.5037 27.9753 55.5035 27.9762 55.5026 27.9779C55.5032 27.9762 55.5036 27.9753 55.5036 27.9753ZM55.4473 27.9545C55.4669 27.9736 55.4799 27.9887 55.4884 28C55.4799 28.0113 55.4669 28.0264 55.4473 28.0455C55.3695 28.1216 55.2279 28.2189 55.0004 28.3265C54.548 28.5404 53.8614 28.7462 52.973 28.9239C51.2044 29.2777 48.7388 29.5 46 29.5C43.2612 29.5 40.7956 29.2777 39.027 28.9239C38.1386 28.7462 37.452 28.5404 36.9996 28.3265C36.7721 28.2189 36.6305 28.1216 36.5526 28.0455C36.5331 28.0264 36.5201 28.0113 36.5116 28C36.5201 27.9887 36.5331 27.9736 36.5526 27.9545C36.6305 27.8784 36.7721 27.7811 36.9996 27.6735C37.452 27.4596 38.1386 27.2538 39.027 27.0761C40.7956 26.7223 43.2612 26.5 46 26.5C48.7388 26.5 51.2044 26.7223 52.973 27.0761C53.8614 27.2538 54.548 27.4596 55.0004 27.6735C55.2279 27.7811 55.3695 27.8784 55.4473 27.9545ZM36.4964 27.9753C36.4964 27.9753 36.4968 27.9762 36.4974 27.9779C36.4965 27.9762 36.4963 27.9753 36.4964 27.9753ZM36.4964 28.0247C36.4963 28.0247 36.4965 28.0238 36.4974 28.0221C36.4968 28.0238 36.4964 28.0247 36.4964 28.0247ZM55.5026 28.0221C55.5035 28.0238 55.5037 28.0247 55.5036 28.0247C55.5036 28.0247 55.5032 28.0238 55.5026 28.0221Z" fill="#959AA4" stroke="#DDE1E9"/>
    <path d="M11 21H12.5C12.5 20.4318 12.179 19.9124 11.6708 19.6584L11 21ZM7.67082 17.6584C6.92985 17.2879 6.02884 17.5882 5.65836 18.3292C5.28788 19.0701 5.58821 19.9712 6.32918 20.3416L7.67082 17.6584ZM12.5 28V21H9.5V28H12.5ZM11.6708 19.6584L7.67082 17.6584L6.32918 20.3416L10.3292 22.3416L11.6708 19.6584Z" fill="url(#paint0_linear_16_2195)"/>
    <path d="M15 17H16.5C16.5 16.6022 16.342 16.2206 16.0607 15.9393L15 17ZM12.0607 11.9393C11.4749 11.3536 10.5251 11.3536 9.93934 11.9393C9.35355 12.5251 9.35355 13.4749 9.93934 14.0607L12.0607 11.9393ZM16.5 25V17H13.5V25H16.5ZM16.0607 15.9393L12.0607 11.9393L9.93934 14.0607L13.9393 18.0607L16.0607 15.9393Z" fill="url(#paint1_linear_16_2195)"/>
    <path d="M20 15H21.5C21.5 14.7671 21.4458 14.5375 21.3416 14.3292L20 15ZM18.3416 8.32918C17.9712 7.58821 17.0701 7.28788 16.3292 7.65836C15.5882 8.02884 15.2879 8.92985 15.6584 9.67082L18.3416 8.32918ZM21.5 24V15H18.5V24H21.5ZM21.3416 14.3292L18.3416 8.32918L15.6584 9.67082L18.6584 15.6708L21.3416 14.3292Z" fill="url(#paint2_linear_16_2195)"/>
    <path d="M25 12H26.5C26.5 11.8388 26.474 11.6786 26.423 11.5257L25 12ZM24.423 5.52566C24.1611 4.73974 23.3116 4.315 22.5257 4.57698C21.7397 4.83895 21.315 5.68843 21.577 6.47434L24.423 5.52566ZM26.5 23V12H23.5V23H26.5ZM26.423 11.5257L24.423 5.52566L21.577 6.47434L23.577 12.4743L26.423 11.5257Z" fill="url(#paint3_linear_16_2195)"/>
    <path d="M30 10H31.5C31.5 9.91738 31.4932 9.8349 31.4796 9.7534L30 10ZM30.4796 3.7534C30.3434 2.93625 29.5706 2.38422 28.7534 2.52041C27.9362 2.6566 27.3842 3.42944 27.5204 4.2466L30.4796 3.7534ZM31.5 22V10H28.5V22H31.5ZM31.4796 9.7534L30.4796 3.7534L27.5204 4.2466L28.5204 10.2466L31.4796 9.7534Z" fill="url(#paint4_linear_16_2195)"/>
    <path d="M62 10H60.5C60.5 9.91738 60.5068 9.8349 60.5204 9.7534L62 10ZM61.5204 3.7534C61.6566 2.93625 62.4294 2.38422 63.2466 2.52041C64.0638 2.6566 64.6158 3.42944 64.4796 4.2466L61.5204 3.7534ZM60.5 22V10H63.5V22H60.5ZM60.5204 9.7534L61.5204 3.7534L64.4796 4.2466L63.4796 10.2466L60.5204 9.7534Z" fill="url(#paint5_linear_16_2195)"/>
    <path d="M81 21H79.5C79.5 20.4318 79.821 19.9124 80.3292 19.6584L81 21ZM84.3292 17.6584C85.0701 17.2879 85.9712 17.5882 86.3416 18.3292C86.7121 19.0701 86.4118 19.9712 85.6708 20.3416L84.3292 17.6584ZM79.5 28V21H82.5V28H79.5ZM80.3292 19.6584L84.3292 17.6584L85.6708 20.3416L81.6708 22.3416L80.3292 19.6584Z" fill="url(#paint6_linear_16_2195)"/>
    <path d="M77 17H75.5C75.5 16.6022 75.658 16.2206 75.9393 15.9393L77 17ZM79.9393 11.9393C80.5251 11.3536 81.4749 11.3536 82.0607 11.9393C82.6464 12.5251 82.6464 13.4749 82.0607 14.0607L79.9393 11.9393ZM75.5 25V17H78.5V25H75.5ZM75.9393 15.9393L79.9393 11.9393L82.0607 14.0607L78.0607 18.0607L75.9393 15.9393Z" fill="url(#paint7_linear_16_2195)"/>
    <path d="M72 15H70.5C70.5 14.7671 70.5542 14.5375 70.6584 14.3292L72 15ZM73.6584 8.32918C74.0288 7.58821 74.9299 7.28788 75.6708 7.65836C76.4118 8.02884 76.7121 8.92985 76.3416 9.67082L73.6584 8.32918ZM70.5 24V15H73.5V24H70.5ZM70.6584 14.3292L73.6584 8.32918L76.3416 9.67082L73.3416 15.6708L70.6584 14.3292Z" fill="url(#paint8_linear_16_2195)"/>
    <path d="M67 12H65.5C65.5 11.8388 65.526 11.6786 65.577 11.5257L67 12ZM67.577 5.52566C67.8389 4.73974 68.6884 4.315 69.4743 4.57698C70.2603 4.83895 70.685 5.68843 70.423 6.47434L67.577 5.52566ZM65.5 23V12H68.5V23H65.5ZM65.577 11.5257L67.577 5.52566L70.423 6.47434L68.423 12.4743L65.577 11.5257Z" fill="url(#paint9_linear_16_2195)"/>
    <path d="M42 18V21.9997C38.5 21.9997 36 21.9997 37 14.9997C37.841 9.11303 38.3333 7.66667 37.5 7C37.8333 7.16667 38.2 6.89969 39 8.49969C40 10.4997 38 14.9997 40 14.9997C41.6 14.9997 42 17 42 18Z" fill="url(#paint10_linear_16_2195)"/>
    <path d="M50 18V21.9997C53.5 21.9997 56 21.9997 55 14.9997C54.159 9.11303 53.6667 7.66667 54.5 7C54.1667 7.16667 53.8 6.89969 53 8.49969C52 10.4997 54 14.9997 52 14.9997C50.4 14.9997 50 17 50 18Z" fill="url(#paint11_linear_16_2195)"/>
    <path d="M45.4688 6.49903C45.4863 6.21852 45.719 6 46 6C46.281 6 46.5137 6.21852 46.5312 6.49903L46.9579 13.3264C46.985 13.7605 47.1697 14.1697 47.4772 14.4772C47.8119 14.8119 48 15.2659 48 15.7393V20C48 21.1046 47.1046 22 46 22C44.8954 22 44 21.1046 44 20V15.7393C44 15.2659 44.1881 14.8119 44.5228 14.4772C44.8303 14.1697 45.015 13.7605 45.0421 13.3264L45.4688 6.49903Z" fill="url(#paint12_linear_16_2195)"/>
    <rect x="45" y="15" width="2" height="6" rx="1" fill="#111111"/>
    <circle cx="43" cy="27" r="1" fill="#80858F"/>
    <path d="M43 27H41" stroke="black"/>
    <path d="M43 33H41" stroke="black"/>
    <path d="M42 27V33" stroke="black"/>
    <circle cx="50" cy="27" r="1" fill="#80858F"/>
    <path d="M50 27H48" stroke="black"/>
    <path d="M50 33H48" stroke="black"/>
    <path d="M49 27V33" stroke="black"/>
  </g>
  <defs>
    <filter id="filter0_d_16_2195" x="0" y="0.5" width="92" height="40.5" filterUnits="userSpaceOnUse" color-interpolation-filters="sRGB">
      <feFlood flood-opacity="0" result="BackgroundImageFix"/>
      <feColorMatrix in="SourceAlpha" type="matrix" values="0 0 0 0 0 0 0 0 0 0 0 0 0 0 0 0 0 0 127 0" result="hardAlpha"/>
      <feOffset/>
      <feGaussianBlur stdDeviation="1"/>
      <feComposite in2="hardAlpha" operator="out"/>
      <feColorMatrix type="matrix" values="0 0 0 0 0 0 0 0 0 0 0 0 0 0 0 0 0 0 0.64 0"/>
      <feBlend mode="normal" in2="BackgroundImageFix" result="effect1_dropShadow_16_2195"/>
      <feBlend mode="normal" in="SourceGraphic" in2="effect1_dropShadow_16_2195" result="shape"/>
    </filter>
    <linearGradient id="paint0_linear_16_2195" x1="9" y1="19" x2="9" y2="28" gradientUnits="userSpaceOnUse">
      <stop stop-color="#DB8DFF"/>
      <stop offset="1" stop-color="white"/>
    </linearGradient>
    <linearGradient id="paint1_linear_16_2195" x1="13" y1="13" x2="13" y2="25" gradientUnits="userSpaceOnUse">
      <stop stop-color="#DB8DFF"/>
      <stop offset="1" stop-color="white"/>
    </linearGradient>
    <linearGradient id="paint2_linear_16_2195" x1="18.5" y1="9" x2="18.5" y2="24" gradientUnits="userSpaceOnUse">
      <stop stop-color="#DB8DFF"/>
      <stop offset="1" stop-color="white"/>
    </linearGradient>
    <linearGradient id="paint3_linear_16_2195" x1="24" y1="6" x2="24" y2="23" gradientUnits="userSpaceOnUse">
      <stop stop-color="#DB8DFF"/>
      <stop offset="1" stop-color="white"/>
    </linearGradient>
    <linearGradient id="paint4_linear_16_2195" x1="29.5" y1="4" x2="29.5" y2="22" gradientUnits="userSpaceOnUse">
      <stop stop-color="#DB8DFF"/>
      <stop offset="1" stop-color="white"/>
    </linearGradient>
    <linearGradient id="paint5_linear_16_2195" x1="62.5" y1="4" x2="62.5" y2="22" gradientUnits="userSpaceOnUse">
      <stop stop-color="#DB8DFF"/>
      <stop offset="1" stop-color="white"/>
    </linearGradient>
    <linearGradient id="paint6_linear_16_2195" x1="83" y1="19" x2="83" y2="28" gradientUnits="userSpaceOnUse">
      <stop stop-color="#DB8DFF"/>
      <stop offset="1" stop-color="white"/>
    </linearGradient>
    <linearGradient id="paint7_linear_16_2195" x1="79" y1="13" x2="79" y2="25" gradientUnits="userSpaceOnUse">
      <stop stop-color="#DB8DFF"/>
      <stop offset="1" stop-color="white"/>
    </linearGradient>
    <linearGradient id="paint8_linear_16_2195" x1="73.5" y1="9" x2="73.5" y2="24" gradientUnits="userSpaceOnUse">
      <stop stop-color="#DB8DFF"/>
      <stop offset="1" stop-color="white"/>
    </linearGradient>
    <linearGradient id="paint9_linear_16_2195" x1="68" y1="6" x2="68" y2="23" gradientUnits="userSpaceOnUse">
      <stop stop-color="#DB8DFF"/>
      <stop offset="1" stop-color="white"/>
    </linearGradient>
    <linearGradient id="paint10_linear_16_2195" x1="39.3889" y1="7" x2="39.3889" y2="21.9997" gradientUnits="userSpaceOnUse">
      <stop stop-color="#DA8CFF"/>
      <stop offset="1" stop-color="white"/>
    </linearGradient>
    <linearGradient id="paint11_linear_16_2195" x1="52.6111" y1="7" x2="52.6111" y2="21.9997" gradientUnits="userSpaceOnUse">
      <stop stop-color="#DA8CFF"/>
      <stop offset="1" stop-color="white"/>
    </linearGradient>
    <linearGradient id="paint12_linear_16_2195" x1="46" y1="6" x2="46" y2="22" gradientUnits="userSpaceOnUse">
      <stop stop-color="#DA8CFF"/>
      <stop offset="1" stop-color="white"/>
    </linearGradient>
  </defs>
</svg>