<svg xmlns="http://www.w3.org/2000/svg" width="20" height="20" viewBox="0 0 20 20" fill="none">
  <path d="M10.464 1.81368C10.3879 1.62418 10.2042 1.5 10 1.5C9.79579 1.5 9.61211 1.62418 9.53601 1.81368L8.10124 5.38658L4.25984 5.64704C4.0561 5.66086 3.88124 5.79718 3.81813 5.99139C3.75503 6.1856 3.81637 6.39867 3.97308 6.5296L6.92774 8.99824L5.9884 12.7321C5.93858 12.9302 6.01419 13.1386 6.1794 13.2586C6.3446 13.3786 6.5662 13.3861 6.73914 13.2776L10 11.2304L13.2609 13.2776C13.4338 13.3861 13.6554 13.3786 13.8206 13.2586C13.9858 13.1386 14.0614 12.9302 14.0116 12.7321L13.0723 8.99824L16.0269 6.5296C16.1836 6.39867 16.245 6.1856 16.1819 5.99139C16.1188 5.79718 15.9439 5.66086 15.7402 5.64704L11.8988 5.38658L10.464 1.81368Z" fill="#FFF500" stroke="black" stroke-linejoin="round"/>
  <path d="M10 14L10 19" stroke="black" stroke-linecap="round"/>
  <path d="M8 19C8 18 8 15.5 6 15" stroke="black" stroke-linecap="round"/>
  <path d="M12 19C12 18 12 15.5 14 15" stroke="black" stroke-linecap="round"/>
  <path d="M5.18345 18.4651C5.37446 18.3898 5.5 18.2053 5.5 18C5.5 17.7947 5.37446 17.6102 5.18345 17.5349L4.6683 17.3317L4.46513 16.8166C4.3898 16.6255 4.20534 16.5 4 16.5C3.79466 16.5 3.6102 16.6255 3.53487 16.8166L3.3317 17.3317L2.81655 17.5349C2.62554 17.6102 2.5 17.7947 2.5 18C2.5 18.2053 2.62554 18.3898 2.81655 18.4651L3.3317 18.6683L3.53487 19.1834C3.6102 19.3745 3.79466 19.5 4 19.5C4.20534 19.5 4.3898 19.3745 4.46513 19.1834L4.6683 18.6683L5.18345 18.4651Z" fill="#FFF500" stroke="black" stroke-linejoin="round"/>
  <circle cx="17.5" cy="11.5" r="1" fill="#FFF500" stroke="black"/>
</svg>