<svg xmlns="http://www.w3.org/2000/svg" width="40" height="44" viewBox="0 0 40 44" fill="none">
  <g filter="url(#filter0_d_19_691)">
    <path fill-rule="evenodd" clip-rule="evenodd" d="M22.0661 33.8678C29.9267 32.8544 36 26.1364 36 18C36 9.16344 28.8366 2 20 2C11.1634 2 4 9.16344 4 18C4 26.1364 10.0733 32.8544 17.9339 33.8678L20 38L22.0661 33.8678Z" fill="#00E0FF"/>
    <rect x="8" y="6" width="24" height="24" rx="12" fill="white"/>
    <path fill-rule="evenodd" clip-rule="evenodd" d="M20 12L14 15C14.6667 18 16 24 20 24C24 24 25.3333 18 26 15L20 12ZM20.0002 19.5002C20.8286 19.5002 21.5002 18.8286 21.5002 18.0002C21.5002 17.1718 20.8286 16.5002 20.0002 16.5002C19.1717 16.5002 18.5002 17.1718 18.5002 18.0002C18.5002 18.8286 19.1717 19.5002 20.0002 19.5002Z" fill="#00E0FF"/>
  </g>
  <defs>
    <filter id="filter0_d_19_691" x="0" y="0" width="40" height="44" filterUnits="userSpaceOnUse" color-interpolation-filters="sRGB">
      <feFlood flood-opacity="0" result="BackgroundImageFix"/>
      <feColorMatrix in="SourceAlpha" type="matrix" values="0 0 0 0 0 0 0 0 0 0 0 0 0 0 0 0 0 0 127 0" result="hardAlpha"/>
      <feOffset dy="2"/>
      <feGaussianBlur stdDeviation="2"/>
      <feComposite in2="hardAlpha" operator="out"/>
      <feColorMatrix type="matrix" values="0 0 0 0 0 0 0 0 0 0 0 0 0 0 0 0 0 0 0.16 0"/>
      <feBlend mode="normal" in2="BackgroundImageFix" result="effect1_dropShadow_19_691"/>
      <feBlend mode="normal" in="SourceGraphic" in2="effect1_dropShadow_19_691" result="shape"/>
    </filter>
  </defs>
</svg>