<svg xmlns="http://www.w3.org/2000/svg" width="28" height="28" viewBox="0 0 28 28" fill="none">
  <circle cx="14" cy="14" r="14" fill="#FF8383"/>
  <circle cx="14" cy="14" r="5.5" fill="white" stroke="black"/>
  <circle cx="14" cy="14" r="3.5" fill="white" stroke="black"/>
  <path d="M21 6.5H20V17.5H21V6.5Z" fill="black"/>
  <rect x="-0.5" y="0.5" width="2" height="5" rx="1" transform="matrix(-1 0 0 1 21 16)" fill="white" stroke="black"/>
  <rect x="-0.5" y="0.5" width="2" height="5" rx="1" transform="matrix(-1 0 0 1 8 16)" fill="white" stroke="black"/>
  <path d="M22 6.5V10C22 10.5523 21.5523 11 21 11H20C19.4477 11 19 10.5523 19 10V6.5" stroke="black"/>
  <path d="M7.5 11.5V17.5" stroke="black"/>
  <rect x="-0.5" y="0.5" width="4" height="5" rx="2" transform="matrix(-1 0 0 1 9 6)" fill="#E6E6E6" stroke="black"/>
</svg>