<svg xmlns="http://www.w3.org/2000/svg" width="32" height="32" viewBox="0 0 32 32" fill="none">
  <circle cx="16" cy="16" r="16" fill="#768CFF"/>
  <path fill-rule="evenodd" clip-rule="evenodd" d="M21 11H19V13C17.8954 13 17 13.8954 17 15H19H21H23C23 13.8954 22.1046 13 21 13V11Z" fill="#0BD98F"/>
  <rect x="17" y="22" width="6" height="1" fill="#0BD98F"/>
  <rect x="17" y="16" width="6" height="6" fill="white"/>
  <rect x="19" y="9" width="2" height="1" fill="white"/>
  <path d="M18.5 9C18.5 8.72386 18.7239 8.5 19 8.5H21C21.2761 8.5 21.5 8.72386 21.5 9V10C21.5 10.2761 21.2761 10.5 21 10.5H19C18.7239 10.5 18.5 10.2761 18.5 10V9Z" stroke="black"/>
  <path d="M8.5 16.5H14.5V22C14.5 22.8284 13.8284 23.5 13 23.5H10C9.17157 23.5 8.5 22.8284 8.5 22V16.5Z" stroke="black"/>
  <path d="M8.5 16.5H14.5V20C14.5 20.8284 13.8284 21.5 13 21.5H10C9.17157 21.5 8.5 20.8284 8.5 20V16.5Z" fill="#00F0FF" stroke="black"/>
  <path fill-rule="evenodd" clip-rule="evenodd" d="M18.5007 13.4007L19 13.1119V12.5351V11H21V12.5351V13.1119L21.4993 13.4007C22.3986 13.921 23 14.8908 23 16V17.5C23 17.7761 23.2239 18 23.5 18C23.7761 18 24 17.7761 24 17.5V16C24 14.5194 23.1956 13.2267 22 12.5351V11V10H21H19H18V11V12.5351C16.8044 13.2267 16 14.5194 16 16V23C16 23.5523 16.4477 24 17 24H23C23.5523 24 24 23.5523 24 23V19.5C24 19.2239 23.7761 19 23.5 19C23.2239 19 23 19.2239 23 19.5V23H17V16C17 14.8908 17.6014 13.921 18.5007 13.4007Z" fill="black"/>
  <rect x="17" y="15" width="6" height="1" fill="black"/>
  <rect x="16" y="21" width="8" height="1" fill="black"/>
</svg>