<svg xmlns="http://www.w3.org/2000/svg" width="20" height="20" viewBox="0 0 20 20" fill="none">
  <rect x="3.5" y="1.5" width="13" height="5" stroke="black" stroke-linejoin="round"/>
  <circle cx="7.5" cy="9.5" r="1" fill="#D9D9D9" stroke="black"/>
  <circle cx="12.5" cy="9.5" r="1" fill="#D9D9D9" stroke="black"/>
  <rect x="4" y="7" width="1" height="7" fill="black"/>
  <rect x="15" y="7" width="1" height="7" fill="black"/>
  <path d="M6 12C6 11.1716 6.67157 10.5 7.5 10.5C8.32843 10.5 9 11.1716 9 12V13C9 13.8284 8.32843 14.5 7.5 14.5C6.67157 14.5 6 13.8284 6 13V12Z" fill="white" stroke="black"/>
  <path d="M11 12C11 11.1716 11.6716 10.5 12.5 10.5C13.3284 10.5 14 11.1716 14 12V13C14 13.8284 13.3284 14.5 12.5 14.5C11.6716 14.5 11 13.8284 11 13V12Z" fill="white" stroke="black"/>
  <rect x="3.5" y="13.5" width="13" height="5" fill="#FFC75B" stroke="black" stroke-linejoin="round"/>
  <rect x="4" y="2" width="2" height="4" fill="#FF1A1A"/>
  <rect x="6" y="2" width="2" height="4" fill="white"/>
  <rect x="10" y="2" width="2" height="4" fill="white"/>
  <rect x="8" y="2" width="2" height="4" fill="#FF1A1A"/>
  <rect x="12" y="2" width="2" height="4" fill="#FF1A1A"/>
  <rect x="14" y="2" width="2" height="4" fill="white"/>
</svg>