<svg xmlns="http://www.w3.org/2000/svg" width="20" height="20" viewBox="0 0 20 20" fill="none">
  <path d="M3.93311 6.44434H4.86644V13.5554H3.93311V6.44434Z" fill="#333333"/>
  <path d="M15.1333 6.44434H16.0666V13.5554H15.1333V6.44434Z" fill="#333333"/>
  <path d="M3 14.4888C3 13.9733 3.41787 13.5554 3.93333 13.5554H16.0667C16.5821 13.5554 17 13.9733 17 14.4888V17.9998H3V14.4888Z" fill="#333333"/>
  <ellipse cx="7.6666" cy="9.5555" rx="1.4" ry="1.33333" fill="#333333"/>
  <ellipse cx="12.3331" cy="9.5555" rx="1.4" ry="1.33333" fill="#333333"/>
  <path d="M5.7998 12.7553C5.7998 11.7244 6.63554 10.8887 7.66647 10.8887C8.6974 10.8887 9.53314 11.7244 9.53314 12.7553V13.4664C9.53314 14.4974 8.6974 15.3331 7.66647 15.3331C6.63554 15.3331 5.7998 14.4974 5.7998 13.4664V12.7553Z" fill="#333333"/>
  <path d="M10.4668 12.7553C10.4668 11.7244 11.3025 10.8887 12.3335 10.8887C13.3644 10.8887 14.2001 11.7244 14.2001 12.7553V13.4664C14.2001 14.4974 13.3644 15.3331 12.3335 15.3331C11.3025 15.3331 10.4668 14.4974 10.4668 13.4664V12.7553Z" fill="#333333"/>
  <path d="M3 2.93333C3 2.41787 3.41787 2 3.93333 2H5.8V6.44443H3V2.93333Z" fill="#333333"/>
  <path d="M6.7334 2H9.5334V6.44443H6.7334V2Z" fill="#333333"/>
  <path d="M10.4668 2H13.2668V6.44443H10.4668V2Z" fill="#333333"/>
  <path d="M14.2002 2H16.0669C16.5823 2 17.0002 2.41787 17.0002 2.93333V6.44443H14.2002V2Z" fill="#333333"/>
</svg>