<svg xmlns="http://www.w3.org/2000/svg" width="20" height="20" viewBox="0 0 20 20" fill="none">
  <path fill-rule="evenodd" clip-rule="evenodd" d="M15 5H13V7C11.8954 7 11 7.89543 11 9H13H15H17C17 7.89543 16.1046 7 15 7V5Z" fill="#0BD98F"/>
  <rect x="11" y="16" width="6" height="1" fill="#0BD98F"/>
  <rect x="11" y="10" width="6" height="6" fill="white"/>
  <rect x="13" y="3" width="2" height="1" fill="white"/>
  <path d="M12.5 3C12.5 2.72386 12.7239 2.5 13 2.5H15C15.2761 2.5 15.5 2.72386 15.5 3V4C15.5 4.27614 15.2761 4.5 15 4.5H13C12.7239 4.5 12.5 4.27614 12.5 4V3Z" stroke="black"/>
  <path d="M2.5 10.5H8.5V16C8.5 16.8284 7.82843 17.5 7 17.5H4C3.17157 17.5 2.5 16.8284 2.5 16V10.5Z" stroke="black"/>
  <path d="M2.5 10.5H8.5V14C8.5 14.8284 7.82843 15.5 7 15.5H4C3.17157 15.5 2.5 14.8284 2.5 14V10.5Z" fill="#00F0FF" stroke="black"/>
  <path fill-rule="evenodd" clip-rule="evenodd" d="M12.5007 7.40073L13 7.11192V6.53513V5H15V6.53513V7.11192L15.4993 7.40073C16.3986 7.92096 17 8.89084 17 10V11.5C17 11.7761 17.2239 12 17.5 12C17.7761 12 18 11.7761 18 11.5V10C18 8.51944 17.1956 7.22675 16 6.53513V5V4H15H13H12V5V6.53513C10.8044 7.22675 10 8.51944 10 10V17C10 17.5523 10.4477 18 11 18H17C17.5523 18 18 17.5523 18 17V13.5C18 13.2239 17.7761 13 17.5 13C17.2239 13 17 13.2239 17 13.5V17H11V10C11 8.89084 11.6014 7.92096 12.5007 7.40073Z" fill="black"/>
  <rect x="11" y="9" width="6" height="1" fill="black"/>
  <rect x="10" y="15" width="8" height="1" fill="black"/>
</svg>