<svg width="390" height="2628" viewBox="0 0 390 2628" fill="none" xmlns="http://www.w3.org/2000/svg">
<rect width="390" height="2628" fill="#FCF2EB"/>
<mask id="mask0_888_422" style="mask-type:alpha" maskUnits="userSpaceOnUse" x="0" y="0" width="390" height="2628">
<rect width="390" height="2628" fill="#FCF2EB"/>
</mask>
<g mask="url(#mask0_888_422)">
<path d="M68.9596 -10.0309C68.4249 -7.94575 66.297 -3.55089 62.0625 -2.65267C56.7694 -1.5299 52.9199 -8.10614 56.2883 -10.6725C59.6566 -13.2388 64.6289 -8.90812 62.8645 -3.29426C61.1001 2.31961 53.7219 7.61267 43.7773 1.35721" stroke="#CFD8C5" stroke-width="2.56634" stroke-linecap="round"/>
<path d="M204.891 3.12054C202.958 2.17339 198.234 0.938468 194.802 3.57592C190.511 6.87273 193.014 14.0702 197.152 13.1745C201.291 12.2789 201.226 5.68539 195.81 3.38251C190.395 1.07962 181.579 3.25479 179.88 14.8797" stroke="#E3CACD" stroke-width="2.56634" stroke-linecap="round"/>
<circle cx="8.1703" cy="13.2714" r="4.1703" fill="#CCCFD6"/>
<circle cx="324.829" cy="23.9379" r="4.1703" fill="#E4CBD1"/>
<path d="M230.5 46.7228L241.493 48.0002C237.287 41.9566 236.68 36.622 236.902 34.7101L227.183 33.5807C226.561 38.934 229.135 44.5726 230.5 46.7228Z" fill="#CDCED3"/>
<path d="M383.073 24.7138L379.133 35.056C375.713 28.5351 371.261 25.5344 369.462 24.8492L372.945 15.7061C377.981 17.6247 381.796 22.5107 383.073 24.7138Z" fill="#D1D5C3"/>
<path d="M274.427 14.5539L276.352 11.6668C272.245 7.56064 263.413 4.60935 259.51 3.64697L258.708 7.65688C263.456 7.91351 271.165 12.3618 274.427 14.5539Z" fill="#CECFD4"/>
<path d="M93.3186 27.0478L96.4291 25.5098C94.9261 19.9007 88.7526 12.9286 85.8537 10.1437L83.1542 13.2154C87.1376 15.8115 91.5902 23.5187 93.3186 27.0478Z" fill="#F5C9C6"/>
<path d="M128.223 32.2629L129.805 35.3513C135.392 33.7691 142.276 27.4975 145.02 24.5595L141.91 21.9038C139.371 25.9235 131.728 30.4847 128.223 32.2629Z" fill="#E4CBD1"/>
<path d="M319.827 118.031C320.361 115.946 322.489 111.551 326.724 110.653C332.017 109.53 335.866 116.106 332.498 118.672C329.13 121.239 324.157 116.908 325.922 111.294C327.686 105.68 335.064 100.387 345.009 106.643" stroke="#CFD8C5" stroke-width="2.56634" stroke-linecap="round"/>
<path d="M190.386 147.543C189.852 145.458 187.724 141.063 183.489 140.165C178.196 139.042 174.347 145.618 177.715 148.185C181.083 150.751 186.056 146.42 184.291 140.806C182.527 135.193 175.149 129.9 165.204 136.155" stroke="#F5C8C5" stroke-width="2.56634" stroke-linecap="round"/>
<path d="M183.895 104.879C185.828 105.827 190.552 107.062 193.985 104.424C198.275 101.127 195.773 93.9298 191.634 94.8254C187.495 95.7211 187.561 102.315 192.976 104.617C198.391 106.92 207.207 104.745 208.906 93.1203" stroke="#E3CACD" stroke-width="2.56634" stroke-linecap="round"/>
<path d="M15.2338 128.252C15.6806 130.358 17.7541 135.876 21.9472 136.951C27.1886 138.294 34.5628 131.919 29.1883 127.931C24.2159 124.242 19.6452 130.593 21.1728 136.276C22.7004 141.959 33.2655 147.558 43.4635 141.725" stroke="#CACFD5" stroke-width="2.56634" stroke-linecap="round"/>
<circle cx="380.616" cy="94.7286" r="4.1703" transform="rotate(-180 380.616 94.7286)" fill="#CCCFD6"/>
<circle cx="292.398" cy="142.847" r="4.1703" transform="rotate(-180 292.398 142.847)" fill="#CCCFD6"/>
<circle cx="63.9566" cy="84.0621" r="4.1703" transform="rotate(-180 63.9566 84.0621)" fill="#E4CBD1"/>
<path d="M244.383 125.781L245.833 136.753C250.665 131.196 255.689 129.302 257.597 129.05L256.315 119.35C250.972 120.056 246.134 123.931 244.383 125.781Z" fill="#D1D5C3"/>
<path d="M158.286 61.2772L147.293 59.9998C151.499 66.0434 152.107 71.378 151.884 73.2899L161.603 74.4193C162.225 69.066 159.651 63.4274 158.286 61.2772Z" fill="#CDCED3"/>
<path d="M5.71295 83.2862L9.65303 72.944C13.0732 79.4649 17.5256 82.4656 19.3242 83.1508L15.841 92.2939C10.8048 90.3753 6.99053 85.4893 5.71295 83.2862Z" fill="#D1D5C3"/>
<path d="M114.359 93.4461L112.435 96.3332C116.541 100.439 125.373 103.391 129.276 104.353L130.078 100.343C125.33 100.086 117.621 95.6382 114.359 93.4461Z" fill="#CECFD4"/>
<path d="M295.468 80.9522L292.357 82.4902C293.86 88.0993 300.034 95.0714 302.932 97.8563L305.632 94.7846C301.649 92.1885 297.196 84.4813 295.468 80.9522Z" fill="#F5C9C6"/>
<path d="M102.67 138.695L99.5592 140.233C101.062 145.842 107.236 152.814 110.135 155.599L112.834 152.527C108.851 149.931 104.398 142.224 102.67 138.695Z" fill="#CFD6C5"/>
<path d="M83.8203 123.119L84.0436 119.656C78.4345 118.153 69.3097 120.014 65.4484 121.132L66.7589 125.005C70.9988 122.854 79.8998 122.851 83.8203 123.119Z" fill="#F7C7C5"/>
<path d="M357.173 135.594L356.813 139.045C362.359 140.768 371.55 139.269 375.452 138.303L374.296 134.381C369.974 136.364 361.08 136.016 357.173 135.594Z" fill="#F7C7C5"/>
<path d="M260.563 75.7371L258.981 72.6487C253.394 74.2309 246.51 80.5025 243.766 83.4405L246.876 86.0962C249.415 82.0765 257.059 77.5153 260.563 75.7371Z" fill="#E4CBD1"/>
<path d="M68.9596 203.969C68.4249 206.054 66.297 210.449 62.0625 211.347C56.7694 212.47 52.9199 205.894 56.2883 203.328C59.6566 200.761 64.6289 205.092 62.8645 210.706C61.1001 216.32 53.7219 221.613 43.7773 215.357" stroke="#CFD8C5" stroke-width="2.56634" stroke-linecap="round"/>
<path d="M68.9596 417.969C68.4249 420.054 66.297 424.449 62.0625 425.347C56.7694 426.47 52.9199 419.894 56.2883 417.328C59.6566 414.761 64.6289 419.092 62.8645 424.706C61.1001 430.32 53.7219 435.613 43.7773 429.357" stroke="#CFD8C5" stroke-width="2.56634" stroke-linecap="round"/>
<path d="M68.9596 639.969C68.4249 642.054 66.297 646.449 62.0625 647.347C56.7694 648.47 52.9199 641.894 56.2883 639.328C59.6566 636.761 64.6289 641.092 62.8645 646.706C61.1001 652.32 53.7219 657.613 43.7773 651.357" stroke="#CFD8C5" stroke-width="2.56634" stroke-linecap="round"/>
<path d="M198.4 388.457C198.934 390.542 201.062 394.937 205.297 395.835C210.59 396.958 214.439 390.382 211.071 387.815C207.703 385.249 202.731 389.58 204.495 395.194C206.259 400.807 213.637 406.1 223.582 399.845" stroke="#F5C8C5" stroke-width="2.56634" stroke-linecap="round"/>
<path d="M68.9596 968.969C68.4249 971.054 66.297 975.449 62.0625 976.348C56.7694 977.47 52.9199 970.894 56.2883 968.328C59.6566 965.761 64.6289 970.092 62.8645 975.706C61.1001 981.32 53.7219 986.613 43.7773 980.357" stroke="#CFD8C5" stroke-width="2.56634" stroke-linecap="round"/>
<path d="M68.9596 1519.97C68.4249 1522.05 66.297 1526.45 62.0625 1527.35C56.7694 1528.47 52.9199 1521.89 56.2883 1519.33C59.6566 1516.76 64.6289 1521.09 62.8645 1526.71C61.1001 1532.32 53.7219 1537.61 43.7773 1531.36" stroke="#CFD8C5" stroke-width="2.56634" stroke-linecap="round"/>
<path d="M68.9596 2406.97C68.4249 2409.05 66.297 2413.45 62.0625 2414.35C56.7694 2415.47 52.9199 2408.89 56.2883 2406.33C59.6566 2403.76 64.6289 2408.09 62.8645 2413.71C61.1001 2419.32 53.7219 2424.61 43.7773 2418.36" stroke="#CFD8C5" stroke-width="2.56634" stroke-linecap="round"/>
<path d="M204.891 431.121C202.958 430.173 198.234 428.938 194.802 431.576C190.511 434.873 193.014 442.07 197.152 441.175C201.291 440.279 201.226 433.685 195.81 431.383C190.395 429.08 181.579 431.255 179.88 442.88" stroke="#E3CACD" stroke-width="2.56634" stroke-linecap="round"/>
<path d="M198.4 610.457C198.934 612.542 201.062 616.937 205.297 617.835C210.59 618.958 214.439 612.382 211.071 609.815C207.703 607.249 202.731 611.58 204.495 617.194C206.259 622.807 213.637 628.1 223.582 621.845" stroke="#F5C8C5" stroke-width="2.56634" stroke-linecap="round"/>
<path d="M68.9596 1190.97C68.4249 1193.05 66.297 1197.45 62.0625 1198.35C56.7694 1199.47 52.9199 1192.89 56.2883 1190.33C59.6566 1187.76 64.6289 1192.09 62.8645 1197.71C61.1001 1203.32 53.7219 1208.61 43.7773 1202.36" stroke="#CFD8C5" stroke-width="2.56634" stroke-linecap="round"/>
<path d="M68.9596 1741.97C68.4249 1744.05 66.297 1748.45 62.0625 1749.35C56.7694 1750.47 52.9199 1743.89 56.2883 1741.33C59.6566 1738.76 64.6289 1743.09 62.8645 1748.71C61.1001 1754.32 53.7219 1759.61 43.7773 1753.36" stroke="#CFD8C5" stroke-width="2.56634" stroke-linecap="round"/>
<path d="M373.552 407.748C373.106 405.642 371.032 400.124 366.839 399.049C361.598 397.706 354.223 404.081 359.598 408.069C364.57 411.758 369.141 405.407 367.613 399.724C366.086 394.041 355.521 388.442 345.323 394.275" stroke="#CACFD5" stroke-width="2.56634" stroke-linecap="round"/>
<path d="M68.9596 2077.97C68.4249 2080.05 66.297 2084.45 62.0625 2085.35C56.7694 2086.47 52.9199 2079.89 56.2883 2077.33C59.6566 2074.76 64.6289 2079.09 62.8645 2084.71C61.1001 2090.32 53.7219 2095.61 43.7773 2089.36" stroke="#CFD8C5" stroke-width="2.56634" stroke-linecap="round"/>
<path d="M68.9596 2628.97C68.4249 2631.05 66.297 2635.45 62.0625 2636.35C56.7694 2637.47 52.9199 2630.89 56.2883 2628.33C59.6566 2625.76 64.6289 2630.09 62.8645 2635.71C61.1001 2641.32 53.7219 2646.61 43.7773 2640.36" stroke="#CFD8C5" stroke-width="2.56634" stroke-linecap="round"/>
<circle cx="8.1703" cy="441.271" r="4.1703" fill="#CCCFD6"/>
<path d="M198.4 1490.46C198.934 1492.54 201.062 1496.94 205.297 1497.84C210.59 1498.96 214.439 1492.38 211.071 1489.82C207.703 1487.25 202.731 1491.58 204.495 1497.19C206.259 1502.81 213.637 1508.1 223.582 1501.85" stroke="#F5C8C5" stroke-width="2.56634" stroke-linecap="round"/>
<path d="M204.891 653.121C202.958 652.173 198.234 650.938 194.802 653.576C190.511 656.873 193.014 664.07 197.152 663.175C201.291 662.279 201.226 655.685 195.81 653.383C190.395 651.08 181.579 653.255 179.88 664.88" stroke="#E3CACD" stroke-width="2.56634" stroke-linecap="round"/>
<circle cx="96.3881" cy="393.153" r="4.1703" fill="#CCCFD6"/>
<path d="M198.4 939.457C198.934 941.542 201.062 945.937 205.297 946.835C210.59 947.958 214.439 941.382 211.071 938.816C207.703 936.249 202.731 940.58 204.495 946.194C206.259 951.808 213.637 957.101 223.582 950.845" stroke="#F5C8C5" stroke-width="2.56634" stroke-linecap="round"/>
<path d="M198.4 2377.46C198.934 2379.54 201.062 2383.94 205.297 2384.84C210.59 2385.96 214.439 2379.38 211.071 2376.82C207.703 2374.25 202.731 2378.58 204.495 2384.19C206.259 2389.81 213.637 2395.1 223.582 2388.85" stroke="#F5C8C5" stroke-width="2.56634" stroke-linecap="round"/>
<circle cx="324.829" cy="451.938" r="4.1703" fill="#E4CBD1"/>
<path d="M373.552 629.748C373.106 627.642 371.032 622.124 366.839 621.049C361.598 619.706 354.223 626.081 359.598 630.069C364.57 633.758 369.141 627.407 367.613 621.724C366.086 616.041 355.521 610.442 345.323 616.275" stroke="#CACFD5" stroke-width="2.56634" stroke-linecap="round"/>
<path d="M144.403 410.219L142.953 399.247C138.122 404.804 133.097 406.698 131.189 406.95L132.471 416.65C137.814 415.944 142.652 412.069 144.403 410.219Z" fill="#D1D5C3"/>
<path d="M198.4 174.457C198.934 176.542 201.062 180.937 205.297 181.835C210.59 182.958 214.439 176.382 211.071 173.815C207.703 171.249 202.731 175.58 204.495 181.194C206.259 186.807 213.637 192.1 223.582 185.845" stroke="#F5C8C5" stroke-width="2.56634" stroke-linecap="round"/>
<path d="M204.891 1533.12C202.958 1532.17 198.234 1530.94 194.802 1533.58C190.511 1536.87 193.014 1544.07 197.152 1543.17C201.291 1542.28 201.226 1535.69 195.81 1533.38C190.395 1531.08 181.579 1533.26 179.88 1544.88" stroke="#E3CACD" stroke-width="2.56634" stroke-linecap="round"/>
<path d="M230.5 474.723L241.493 476C237.287 469.957 236.68 464.622 236.902 462.71L227.183 461.581C226.561 466.934 229.135 472.573 230.5 474.723Z" fill="#CDCED3"/>
<circle cx="8.1703" cy="663.271" r="4.1703" fill="#CCCFD6"/>
<path d="M383.073 452.714L379.133 463.056C375.713 456.535 371.261 453.534 369.462 452.849L372.945 443.706C377.981 445.625 381.796 450.511 383.073 452.714Z" fill="#D1D5C3"/>
<path d="M198.4 1161.46C198.934 1163.54 201.062 1167.94 205.297 1168.84C210.59 1169.96 214.439 1163.38 211.071 1160.82C207.703 1158.25 202.731 1162.58 204.495 1168.19C206.259 1173.81 213.637 1179.1 223.582 1172.85" stroke="#F5C8C5" stroke-width="2.56634" stroke-linecap="round"/>
<path d="M198.4 1712.46C198.934 1714.54 201.062 1718.94 205.297 1719.84C210.59 1720.96 214.439 1714.38 211.071 1711.82C207.703 1709.25 202.731 1713.58 204.495 1719.19C206.259 1724.81 213.637 1730.1 223.582 1723.85" stroke="#F5C8C5" stroke-width="2.56634" stroke-linecap="round"/>
<path d="M204.891 982.121C202.958 981.174 198.234 979.939 194.802 982.576C190.511 985.873 193.014 993.07 197.152 992.175C201.291 991.279 201.226 984.686 195.81 982.383C190.395 980.08 181.579 982.255 179.88 993.88" stroke="#E3CACD" stroke-width="2.56634" stroke-linecap="round"/>
<path d="M204.891 2420.12C202.958 2419.17 198.234 2417.94 194.802 2420.58C190.511 2423.87 193.014 2431.07 197.152 2430.17C201.291 2429.28 201.226 2422.69 195.81 2420.38C190.395 2418.08 181.579 2420.26 179.88 2431.88" stroke="#E3CACD" stroke-width="2.56634" stroke-linecap="round"/>
<path d="M274.427 442.554L276.352 439.667C272.245 435.561 263.413 432.609 259.51 431.647L258.708 435.657C263.456 435.914 271.165 440.362 274.427 442.554Z" fill="#CECFD4"/>
<circle cx="96.3881" cy="615.153" r="4.1703" fill="#CCCFD6"/>
<path d="M373.552 1509.75C373.106 1507.64 371.032 1502.12 366.839 1501.05C361.598 1499.71 354.223 1506.08 359.598 1510.07C364.57 1513.76 369.141 1507.41 367.613 1501.72C366.086 1496.04 355.521 1490.44 345.323 1496.28" stroke="#CACFD5" stroke-width="2.56634" stroke-linecap="round"/>
<path d="M93.3186 455.048L96.4291 453.51C94.9261 447.901 88.7526 440.929 85.8537 438.144L83.1542 441.215C87.1376 443.811 91.5902 451.519 93.3186 455.048Z" fill="#F5C9C6"/>
<path d="M198.4 2048.46C198.934 2050.54 201.062 2054.94 205.297 2055.84C210.59 2056.96 214.439 2050.38 211.071 2047.82C207.703 2045.25 202.731 2049.58 204.495 2055.19C206.259 2060.81 213.637 2066.1 223.582 2059.85" stroke="#F5C8C5" stroke-width="2.56634" stroke-linecap="round"/>
<path d="M198.4 2599.46C198.934 2601.54 201.062 2605.94 205.297 2606.84C210.59 2607.96 214.439 2601.38 211.071 2598.82C207.703 2596.25 202.731 2600.58 204.495 2606.19C206.259 2611.81 213.637 2617.1 223.582 2610.85" stroke="#F5C8C5" stroke-width="2.56634" stroke-linecap="round"/>
<path d="M286.116 397.305L289.227 395.767C287.724 390.158 281.55 383.186 278.652 380.401L275.952 383.473C279.935 386.069 284.388 393.776 286.116 397.305Z" fill="#CFD6C5"/>
<circle cx="324.829" cy="673.938" r="4.1703" fill="#E4CBD1"/>
<path d="M304.966 412.881L304.743 416.344C310.352 417.847 319.476 415.986 323.338 414.868L322.027 410.995C317.787 413.146 308.886 413.149 304.966 412.881Z" fill="#F7C7C5"/>
<path d="M373.552 958.748C373.106 956.643 371.032 951.124 366.839 950.05C361.598 948.706 354.223 955.081 359.598 959.069C364.57 962.759 369.141 956.407 367.613 950.724C366.086 945.041 355.521 939.442 345.323 945.275" stroke="#CACFD5" stroke-width="2.56634" stroke-linecap="round"/>
<path d="M373.552 2396.75C373.106 2394.64 371.032 2389.12 366.839 2388.05C361.598 2386.71 354.223 2393.08 359.598 2397.07C364.57 2400.76 369.141 2394.41 367.613 2388.72C366.086 2383.04 355.521 2377.44 345.323 2383.28" stroke="#CACFD5" stroke-width="2.56634" stroke-linecap="round"/>
<circle cx="8.1703" cy="1543.27" r="4.1703" fill="#CCCFD6"/>
<path d="M31.6131 400.406L31.9727 396.955C26.4272 395.232 17.2361 396.731 13.3338 397.697L14.4906 401.619C18.812 399.636 27.7062 399.984 31.6131 400.406Z" fill="#F7C7C5"/>
<path d="M144.403 632.219L142.953 621.247C138.122 626.804 133.097 628.698 131.189 628.95L132.471 638.65C137.814 637.944 142.652 634.069 144.403 632.219Z" fill="#D1D5C3"/>
<path d="M128.223 460.263L129.805 463.351C135.392 461.769 142.276 455.498 145.02 452.56L141.91 449.904C139.371 453.923 131.728 458.485 128.223 460.263Z" fill="#E4CBD1"/>
<path d="M204.891 1204.12C202.958 1203.17 198.234 1201.94 194.802 1204.58C190.511 1207.87 193.014 1215.07 197.152 1214.17C201.291 1213.28 201.226 1206.69 195.81 1204.38C190.395 1202.08 181.579 1204.26 179.88 1215.88" stroke="#E3CACD" stroke-width="2.56634" stroke-linecap="round"/>
<path d="M204.891 1755.12C202.958 1754.17 198.234 1752.94 194.802 1755.58C190.511 1758.87 193.014 1766.07 197.152 1765.17C201.291 1764.28 201.226 1757.69 195.81 1755.38C190.395 1753.08 181.579 1755.26 179.88 1766.88" stroke="#E3CACD" stroke-width="2.56634" stroke-linecap="round"/>
<path d="M204.891 217.121C202.958 216.173 198.234 214.938 194.802 217.576C190.511 220.873 193.014 228.07 197.152 227.175C201.291 226.279 201.226 219.685 195.81 217.383C190.395 215.08 181.579 217.255 179.88 228.88" stroke="#E3CACD" stroke-width="2.56634" stroke-linecap="round"/>
<path d="M319.827 546.031C320.361 543.946 322.489 539.551 326.724 538.653C332.017 537.53 335.866 544.106 332.498 546.672C329.13 549.239 324.157 544.908 325.922 539.294C327.686 533.68 335.064 528.387 345.009 534.643" stroke="#CFD8C5" stroke-width="2.56634" stroke-linecap="round"/>
<path d="M230.5 696.723L241.493 698C237.287 691.957 236.68 686.622 236.902 684.71L227.183 683.581C226.561 688.934 229.135 694.573 230.5 696.723Z" fill="#CDCED3"/>
<path d="M190.386 575.543C189.852 573.458 187.724 569.063 183.489 568.165C178.196 567.042 174.347 573.618 177.715 576.185C181.083 578.751 186.056 574.42 184.291 568.806C182.527 563.193 175.149 557.9 165.204 564.155" stroke="#F5C8C5" stroke-width="2.56634" stroke-linecap="round"/>
<circle cx="96.3881" cy="1495.15" r="4.1703" fill="#CCCFD6"/>
<circle cx="8.1703" cy="992.272" r="4.1703" fill="#CCCFD6"/>
<circle cx="8.1703" cy="2430.27" r="4.1703" fill="#CCCFD6"/>
<path d="M183.895 532.879C185.828 533.827 190.552 535.062 193.985 532.424C198.275 529.127 195.773 521.93 191.634 522.825C187.495 523.721 187.561 530.315 192.976 532.617C198.391 534.92 207.207 532.745 208.906 521.12" stroke="#E3CACD" stroke-width="2.56634" stroke-linecap="round"/>
<path d="M383.073 674.714L379.133 685.056C375.713 678.535 371.261 675.534 369.462 674.849L372.945 665.706C377.981 667.625 381.796 672.511 383.073 674.714Z" fill="#D1D5C3"/>
<path d="M15.2338 556.252C15.6806 558.358 17.7541 563.876 21.9472 564.951C27.1886 566.294 34.5628 559.919 29.1883 555.931C24.2159 552.242 19.6452 558.593 21.1728 564.276C22.7004 569.959 33.2655 575.558 43.4635 569.725" stroke="#CACFD5" stroke-width="2.56634" stroke-linecap="round"/>
<path d="M204.891 2091.12C202.958 2090.17 198.234 2088.94 194.802 2091.58C190.511 2094.87 193.014 2102.07 197.152 2101.17C201.291 2100.28 201.226 2093.69 195.81 2091.38C190.395 2089.08 181.579 2091.26 179.88 2102.88" stroke="#E3CACD" stroke-width="2.56634" stroke-linecap="round"/>
<circle cx="380.616" cy="522.729" r="4.1703" transform="rotate(-180 380.616 522.729)" fill="#CCCFD6"/>
<circle cx="324.829" cy="1553.94" r="4.1703" fill="#E4CBD1"/>
<path d="M274.427 664.554L276.352 661.667C272.245 657.561 263.413 654.609 259.51 653.647L258.708 657.657C263.456 657.914 271.165 662.362 274.427 664.554Z" fill="#CECFD4"/>
<circle cx="292.398" cy="570.847" r="4.1703" transform="rotate(-180 292.398 570.847)" fill="#CCCFD6"/>
<circle cx="96.3881" cy="944.153" r="4.1703" fill="#CCCFD6"/>
<path d="M373.552 1180.75C373.106 1178.64 371.032 1173.12 366.839 1172.05C361.598 1170.71 354.223 1177.08 359.598 1181.07C364.57 1184.76 369.141 1178.41 367.613 1172.72C366.086 1167.04 355.521 1161.44 345.323 1167.28" stroke="#CACFD5" stroke-width="2.56634" stroke-linecap="round"/>
<path d="M373.552 1731.75C373.106 1729.64 371.032 1724.12 366.839 1723.05C361.598 1721.71 354.223 1728.08 359.598 1732.07C364.57 1735.76 369.141 1729.41 367.613 1723.72C366.086 1718.04 355.521 1712.44 345.323 1718.28" stroke="#CACFD5" stroke-width="2.56634" stroke-linecap="round"/>
<circle cx="96.3881" cy="2382.15" r="4.1703" fill="#CCCFD6"/>
<circle cx="63.9566" cy="512.062" r="4.1703" transform="rotate(-180 63.9566 512.062)" fill="#E4CBD1"/>
<path d="M93.3186 677.048L96.4291 675.51C94.9261 669.901 88.7526 662.929 85.8537 660.144L83.1542 663.215C87.1376 665.811 91.5902 673.519 93.3186 677.048Z" fill="#F5C9C6"/>
<path d="M244.383 553.781L245.833 564.753C250.665 559.196 255.689 557.302 257.597 557.05L256.315 547.35C250.972 548.056 246.134 551.931 244.383 553.781Z" fill="#D1D5C3"/>
<path d="M144.403 1512.22L142.953 1501.25C138.122 1506.8 133.097 1508.7 131.189 1508.95L132.471 1518.65C137.814 1517.94 142.652 1514.07 144.403 1512.22Z" fill="#D1D5C3"/>
<path d="M373.552 193.748C373.106 191.642 371.032 186.124 366.839 185.049C361.598 183.706 354.223 190.081 359.598 194.069C364.57 197.758 369.141 191.407 367.613 185.724C366.086 180.041 355.521 174.442 345.323 180.275" stroke="#CACFD5" stroke-width="2.56634" stroke-linecap="round"/>
<path d="M158.286 489.277L147.293 488C151.499 494.043 152.107 499.378 151.884 501.29L161.603 502.419C162.225 497.066 159.651 491.427 158.286 489.277Z" fill="#CDCED3"/>
<path d="M286.116 619.305L289.227 617.767C287.724 612.158 281.55 605.186 278.652 602.401L275.952 605.473C279.935 608.069 284.388 615.776 286.116 619.305Z" fill="#CFD6C5"/>
<path d="M5.71295 511.286L9.65303 500.944C13.0732 507.465 17.5256 510.466 19.3242 511.151L15.841 520.294C10.8048 518.375 6.99053 513.489 5.71295 511.286Z" fill="#D1D5C3"/>
<circle cx="324.829" cy="1002.94" r="4.1703" fill="#E4CBD1"/>
<circle cx="324.829" cy="2440.94" r="4.1703" fill="#E4CBD1"/>
<path d="M114.359 521.446L112.435 524.333C116.541 528.439 125.373 531.391 129.276 532.353L130.078 528.343C125.33 528.086 117.621 523.638 114.359 521.446Z" fill="#CECFD4"/>
<path d="M304.966 634.881L304.743 638.344C310.352 639.847 319.476 637.986 323.338 636.868L322.027 632.995C317.787 635.146 308.886 635.149 304.966 634.881Z" fill="#F7C7C5"/>
<path d="M295.468 508.952L292.357 510.49C293.86 516.099 300.034 523.071 302.932 525.856L305.632 522.785C301.649 520.189 297.196 512.481 295.468 508.952Z" fill="#F5C9C6"/>
<path d="M373.552 2067.75C373.106 2065.64 371.032 2060.12 366.839 2059.05C361.598 2057.71 354.223 2064.08 359.598 2068.07C364.57 2071.76 369.141 2065.41 367.613 2059.72C366.086 2054.04 355.521 2048.44 345.323 2054.28" stroke="#CACFD5" stroke-width="2.56634" stroke-linecap="round"/>
<path d="M373.552 2618.75C373.106 2616.64 371.032 2611.12 366.839 2610.05C361.598 2608.71 354.223 2615.08 359.598 2619.07C364.57 2622.76 369.141 2616.41 367.613 2610.72C366.086 2605.04 355.521 2599.44 345.323 2605.28" stroke="#CACFD5" stroke-width="2.56634" stroke-linecap="round"/>
<path d="M102.67 566.695L99.5592 568.233C101.062 573.842 107.236 580.814 110.135 583.599L112.834 580.527C108.851 577.931 104.398 570.224 102.67 566.695Z" fill="#CFD6C5"/>
<path d="M31.6131 622.406L31.9727 618.955C26.4272 617.232 17.2361 618.731 13.3338 619.697L14.4906 623.619C18.812 621.636 27.7062 621.984 31.6131 622.406Z" fill="#F7C7C5"/>
<path d="M83.8203 551.119L84.0436 547.656C78.4345 546.153 69.3097 548.014 65.4484 549.132L66.7589 553.005C70.9988 550.854 79.8998 550.851 83.8203 551.119Z" fill="#F7C7C5"/>
<path d="M144.403 961.22L142.953 950.248C138.122 955.805 133.097 957.698 131.189 957.95L132.471 967.65C137.814 966.944 142.652 963.069 144.403 961.22Z" fill="#D1D5C3"/>
<path d="M144.403 2399.22L142.953 2388.25C138.122 2393.8 133.097 2395.7 131.189 2395.95L132.471 2405.65C137.814 2404.94 142.652 2401.07 144.403 2399.22Z" fill="#D1D5C3"/>
<path d="M357.173 563.594L356.813 567.045C362.359 568.768 371.55 567.269 375.452 566.303L374.296 562.381C369.974 564.364 361.08 564.016 357.173 563.594Z" fill="#F7C7C5"/>
<path d="M128.223 682.263L129.805 685.351C135.392 683.769 142.276 677.498 145.02 674.56L141.91 671.904C139.371 675.923 131.728 680.485 128.223 682.263Z" fill="#E4CBD1"/>
<path d="M260.563 503.737L258.981 500.649C253.394 502.231 246.51 508.502 243.766 511.44L246.876 514.096C249.415 510.077 257.059 505.515 260.563 503.737Z" fill="#E4CBD1"/>
<path d="M319.827 332.031C320.361 329.946 322.489 325.551 326.724 324.653C332.017 323.53 335.866 330.106 332.498 332.672C329.13 335.239 324.157 330.908 325.922 325.294C327.686 319.68 335.064 314.387 345.009 320.643" stroke="#CFD8C5" stroke-width="2.56634" stroke-linecap="round"/>
<path d="M319.827 768.031C320.361 765.946 322.489 761.551 326.724 760.653C332.017 759.53 335.866 766.106 332.498 768.672C329.13 771.239 324.157 766.908 325.922 761.294C327.686 755.68 335.064 750.387 345.009 756.643" stroke="#CFD8C5" stroke-width="2.56634" stroke-linecap="round"/>
<path d="M190.386 361.543C189.852 359.458 187.724 355.063 183.489 354.165C178.196 353.042 174.347 359.618 177.715 362.185C181.083 364.751 186.056 360.42 184.291 354.806C182.527 349.193 175.149 343.9 165.204 350.155" stroke="#F5C8C5" stroke-width="2.56634" stroke-linecap="round"/>
<path d="M190.386 797.543C189.852 795.458 187.724 791.063 183.489 790.165C178.196 789.042 174.347 795.618 177.715 798.185C181.083 800.751 186.056 796.42 184.291 790.806C182.527 785.193 175.149 779.9 165.204 786.155" stroke="#F5C8C5" stroke-width="2.56634" stroke-linecap="round"/>
<path d="M183.895 318.879C185.828 319.827 190.552 321.062 193.985 318.424C198.275 315.127 195.773 307.93 191.634 308.825C187.495 309.721 187.561 316.315 192.976 318.617C198.391 320.92 207.207 318.745 208.906 307.12" stroke="#E3CACD" stroke-width="2.56634" stroke-linecap="round"/>
<path d="M183.895 754.879C185.828 755.827 190.552 757.062 193.985 754.424C198.275 751.127 195.773 743.93 191.634 744.825C187.495 745.721 187.561 752.315 192.976 754.617C198.391 756.92 207.207 754.745 208.906 743.12" stroke="#E3CACD" stroke-width="2.56634" stroke-linecap="round"/>
<path d="M15.2338 342.252C15.6806 344.358 17.7541 349.876 21.9472 350.951C27.1886 352.294 34.5628 345.919 29.1883 341.931C24.2159 338.242 19.6452 344.593 21.1728 350.276C22.7004 355.959 33.2655 361.558 43.4635 355.725" stroke="#CACFD5" stroke-width="2.56634" stroke-linecap="round"/>
<path d="M15.2338 778.252C15.6806 780.358 17.7541 785.876 21.9472 786.951C27.1886 788.294 34.5628 781.919 29.1883 777.931C24.2159 774.242 19.6452 780.593 21.1728 786.276C22.7004 791.959 33.2655 797.558 43.4635 791.725" stroke="#CACFD5" stroke-width="2.56634" stroke-linecap="round"/>
<circle cx="380.616" cy="308.729" r="4.1703" transform="rotate(-180 380.616 308.729)" fill="#CCCFD6"/>
<circle cx="380.616" cy="744.729" r="4.1703" transform="rotate(-180 380.616 744.729)" fill="#CCCFD6"/>
<circle cx="292.398" cy="356.847" r="4.1703" transform="rotate(-180 292.398 356.847)" fill="#CCCFD6"/>
<circle cx="292.398" cy="792.847" r="4.1703" transform="rotate(-180 292.398 792.847)" fill="#CCCFD6"/>
<circle cx="63.9566" cy="298.062" r="4.1703" transform="rotate(-180 63.9566 298.062)" fill="#E4CBD1"/>
<circle cx="63.9566" cy="734.062" r="4.1703" transform="rotate(-180 63.9566 734.062)" fill="#E4CBD1"/>
<path d="M244.383 339.781L245.833 350.753C250.665 345.196 255.689 343.302 257.597 343.05L256.315 333.35C250.972 334.056 246.134 337.931 244.383 339.781Z" fill="#D1D5C3"/>
<path d="M244.383 775.781L245.833 786.753C250.665 781.196 255.689 779.302 257.597 779.05L256.315 769.35C250.972 770.056 246.134 773.931 244.383 775.781Z" fill="#D1D5C3"/>
<path d="M158.286 275.277L147.293 274C151.499 280.043 152.107 285.378 151.884 287.29L161.603 288.419C162.225 283.066 159.651 277.427 158.286 275.277Z" fill="#CDCED3"/>
<path d="M158.286 711.277L147.293 710C151.499 716.043 152.107 721.378 151.884 723.29L161.603 724.419C162.225 719.066 159.651 713.427 158.286 711.277Z" fill="#CDCED3"/>
<path d="M230.5 1576.72L241.493 1578C237.287 1571.96 236.68 1566.62 236.902 1564.71L227.183 1563.58C226.561 1568.93 229.135 1574.57 230.5 1576.72Z" fill="#CDCED3"/>
<circle cx="8.1703" cy="1214.27" r="4.1703" fill="#CCCFD6"/>
<circle cx="8.1703" cy="1765.27" r="4.1703" fill="#CCCFD6"/>
<path d="M5.71295 297.286L9.65303 286.944C13.0732 293.465 17.5256 296.466 19.3242 297.151L15.841 306.294C10.8048 304.375 6.99053 299.489 5.71295 297.286Z" fill="#D1D5C3"/>
<path d="M383.073 1554.71L379.133 1565.06C375.713 1558.54 371.261 1555.53 369.462 1554.85L372.945 1545.71C377.981 1547.63 381.796 1552.51 383.073 1554.71Z" fill="#D1D5C3"/>
<path d="M5.71295 733.286L9.65303 722.944C13.0732 729.465 17.5256 732.466 19.3242 733.151L15.841 742.294C10.8048 740.375 6.99053 735.489 5.71295 733.286Z" fill="#D1D5C3"/>
<path d="M114.359 307.446L112.435 310.333C116.541 314.439 125.373 317.391 129.276 318.353L130.078 314.343C125.33 314.086 117.621 309.638 114.359 307.446Z" fill="#CECFD4"/>
<path d="M274.427 1544.55L276.352 1541.67C272.245 1537.56 263.413 1534.61 259.51 1533.65L258.708 1537.66C263.456 1537.91 271.165 1542.36 274.427 1544.55Z" fill="#CECFD4"/>
<circle cx="96.3881" cy="1166.15" r="4.1703" fill="#CCCFD6"/>
<circle cx="96.3881" cy="1717.15" r="4.1703" fill="#CCCFD6"/>
<path d="M114.359 743.446L112.435 746.333C116.541 750.439 125.373 753.391 129.276 754.353L130.078 750.343C125.33 750.086 117.621 745.638 114.359 743.446Z" fill="#CECFD4"/>
<path d="M93.3186 1557.05L96.4291 1555.51C94.9261 1549.9 88.7526 1542.93 85.8537 1540.14L83.1542 1543.22C87.1376 1545.81 91.5902 1553.52 93.3186 1557.05Z" fill="#F5C9C6"/>
<path d="M295.468 294.952L292.357 296.49C293.86 302.099 300.034 309.071 302.932 311.856L305.632 308.785C301.649 306.189 297.196 298.481 295.468 294.952Z" fill="#F5C9C6"/>
<path d="M295.468 730.952L292.357 732.49C293.86 738.099 300.034 745.071 302.932 747.856L305.632 744.785C301.649 742.189 297.196 734.481 295.468 730.952Z" fill="#F5C9C6"/>
<path d="M286.116 1499.31L289.227 1497.77C287.724 1492.16 281.55 1485.19 278.652 1482.4L275.952 1485.47C279.935 1488.07 284.388 1495.78 286.116 1499.31Z" fill="#CFD6C5"/>
<circle cx="324.829" cy="1224.94" r="4.1703" fill="#E4CBD1"/>
<circle cx="324.829" cy="1775.94" r="4.1703" fill="#E4CBD1"/>
<path d="M102.67 352.695L99.5592 354.233C101.062 359.842 107.236 366.814 110.135 369.599L112.834 366.527C108.851 363.931 104.398 356.224 102.67 352.695Z" fill="#CFD6C5"/>
<path d="M304.966 1514.88L304.743 1518.34C310.352 1519.85 319.476 1517.99 323.338 1516.87L322.027 1512.99C317.787 1515.15 308.886 1515.15 304.966 1514.88Z" fill="#F7C7C5"/>
<path d="M102.67 788.695L99.5592 790.233C101.062 795.842 107.236 802.814 110.135 805.599L112.834 802.527C108.851 799.931 104.398 792.224 102.67 788.695Z" fill="#CFD6C5"/>
<path d="M83.8203 337.119L84.0436 333.656C78.4345 332.153 69.3097 334.014 65.4484 335.132L66.7589 339.005C70.9988 336.854 79.8998 336.851 83.8203 337.119Z" fill="#F7C7C5"/>
<path d="M31.6131 1502.41L31.9727 1498.96C26.4272 1497.23 17.2361 1498.73 13.3338 1499.7L14.4906 1503.62C18.812 1501.64 27.7062 1501.98 31.6131 1502.41Z" fill="#F7C7C5"/>
<path d="M144.403 1183.22L142.953 1172.25C138.122 1177.8 133.097 1179.7 131.189 1179.95L132.471 1189.65C137.814 1188.94 142.652 1185.07 144.403 1183.22Z" fill="#D1D5C3"/>
<path d="M144.403 1734.22L142.953 1723.25C138.122 1728.8 133.097 1730.7 131.189 1730.95L132.471 1740.65C137.814 1739.94 142.652 1736.07 144.403 1734.22Z" fill="#D1D5C3"/>
<path d="M83.8203 773.119L84.0436 769.656C78.4345 768.153 69.3097 770.014 65.4484 771.132L66.7589 775.005C70.9988 772.854 79.8998 772.851 83.8203 773.119Z" fill="#F7C7C5"/>
<path d="M128.223 1562.26L129.805 1565.35C135.392 1563.77 142.276 1557.5 145.02 1554.56L141.91 1551.9C139.371 1555.92 131.728 1560.49 128.223 1562.26Z" fill="#E4CBD1"/>
<path d="M357.173 349.594L356.813 353.045C362.359 354.768 371.55 353.269 375.452 352.303L374.296 348.381C369.974 350.364 361.08 350.016 357.173 349.594Z" fill="#F7C7C5"/>
<path d="M319.827 1097.03C320.361 1094.95 322.489 1090.55 326.724 1089.65C332.017 1088.53 335.866 1095.11 332.498 1097.67C329.13 1100.24 324.157 1095.91 325.922 1090.29C327.686 1084.68 335.064 1079.39 345.009 1085.64" stroke="#CFD8C5" stroke-width="2.56634" stroke-linecap="round"/>
<path d="M319.827 1648.03C320.361 1645.95 322.489 1641.55 326.724 1640.65C332.017 1639.53 335.866 1646.11 332.498 1648.67C329.13 1651.24 324.157 1646.91 325.922 1641.29C327.686 1635.68 335.064 1630.39 345.009 1636.64" stroke="#CFD8C5" stroke-width="2.56634" stroke-linecap="round"/>
<path d="M230.5 1247.72L241.493 1249C237.287 1242.96 236.68 1237.62 236.902 1235.71L227.183 1234.58C226.561 1239.93 229.135 1245.57 230.5 1247.72Z" fill="#CDCED3"/>
<path d="M230.5 1798.72L241.493 1800C237.287 1793.96 236.68 1788.62 236.902 1786.71L227.183 1785.58C226.561 1790.93 229.135 1796.57 230.5 1798.72Z" fill="#CDCED3"/>
<path d="M190.386 1126.54C189.852 1124.46 187.724 1120.06 183.489 1119.17C178.196 1118.04 174.347 1124.62 177.715 1127.18C181.083 1129.75 186.056 1125.42 184.291 1119.81C182.527 1114.19 175.149 1108.9 165.204 1115.16" stroke="#F5C8C5" stroke-width="2.56634" stroke-linecap="round"/>
<path d="M190.386 1677.54C189.852 1675.46 187.724 1671.06 183.489 1670.17C178.196 1669.04 174.347 1675.62 177.715 1678.19C181.083 1680.75 186.056 1676.42 184.291 1670.81C182.527 1665.19 175.149 1659.9 165.204 1666.16" stroke="#F5C8C5" stroke-width="2.56634" stroke-linecap="round"/>
<path d="M357.173 785.594L356.813 789.045C362.359 790.768 371.55 789.269 375.452 788.303L374.296 784.381C369.974 786.364 361.08 786.016 357.173 785.594Z" fill="#F7C7C5"/>
<path d="M183.895 1083.88C185.828 1084.83 190.552 1086.06 193.985 1083.42C198.275 1080.13 195.773 1072.93 191.634 1073.83C187.495 1074.72 187.561 1081.31 192.976 1083.62C198.391 1085.92 207.207 1083.75 208.906 1072.12" stroke="#E3CACD" stroke-width="2.56634" stroke-linecap="round"/>
<path d="M183.895 1634.88C185.828 1635.83 190.552 1637.06 193.985 1634.42C198.275 1631.13 195.773 1623.93 191.634 1624.83C187.495 1625.72 187.561 1632.31 192.976 1634.62C198.391 1636.92 207.207 1634.75 208.906 1623.12" stroke="#E3CACD" stroke-width="2.56634" stroke-linecap="round"/>
<path d="M383.073 1225.71L379.133 1236.06C375.713 1229.54 371.261 1226.53 369.462 1225.85L372.945 1216.71C377.981 1218.62 381.796 1223.51 383.073 1225.71Z" fill="#D1D5C3"/>
<path d="M383.073 1776.71L379.133 1787.06C375.713 1780.54 371.261 1777.53 369.462 1776.85L372.945 1767.71C377.981 1769.63 381.796 1774.51 383.073 1776.71Z" fill="#D1D5C3"/>
<path d="M15.2338 1107.25C15.6806 1109.36 17.7541 1114.88 21.9472 1115.95C27.1886 1117.29 34.5628 1110.92 29.1883 1106.93C24.2159 1103.24 19.6452 1109.59 21.1728 1115.28C22.7004 1120.96 33.2655 1126.56 43.4635 1120.73" stroke="#CACFD5" stroke-width="2.56634" stroke-linecap="round"/>
<path d="M15.2338 1658.25C15.6806 1660.36 17.7541 1665.88 21.9472 1666.95C27.1886 1668.29 34.5628 1661.92 29.1883 1657.93C24.2159 1654.24 19.6452 1660.59 21.1728 1666.28C22.7004 1671.96 33.2655 1677.56 43.4635 1671.73" stroke="#CACFD5" stroke-width="2.56634" stroke-linecap="round"/>
<path d="M260.563 289.737L258.981 286.649C253.394 288.231 246.51 294.502 243.766 297.44L246.876 300.096C249.415 296.077 257.059 291.515 260.563 289.737Z" fill="#E4CBD1"/>
<circle cx="380.616" cy="1073.73" r="4.1703" transform="rotate(-180 380.616 1073.73)" fill="#CCCFD6"/>
<circle cx="380.616" cy="1624.73" r="4.1703" transform="rotate(-180 380.616 1624.73)" fill="#CCCFD6"/>
<path d="M274.427 1215.55L276.352 1212.67C272.245 1208.56 263.413 1205.61 259.51 1204.65L258.708 1208.66C263.456 1208.91 271.165 1213.36 274.427 1215.55Z" fill="#CECFD4"/>
<path d="M274.427 1766.55L276.352 1763.67C272.245 1759.56 263.413 1756.61 259.51 1755.65L258.708 1759.66C263.456 1759.91 271.165 1764.36 274.427 1766.55Z" fill="#CECFD4"/>
<circle cx="292.398" cy="1121.85" r="4.1703" transform="rotate(-180 292.398 1121.85)" fill="#CCCFD6"/>
<circle cx="292.398" cy="1672.85" r="4.1703" transform="rotate(-180 292.398 1672.85)" fill="#CCCFD6"/>
<path d="M260.563 725.737L258.981 722.649C253.394 724.231 246.51 730.502 243.766 733.44L246.876 736.096C249.415 732.077 257.059 727.515 260.563 725.737Z" fill="#E4CBD1"/>
<circle cx="63.9566" cy="1063.06" r="4.1703" transform="rotate(-180 63.9566 1063.06)" fill="#E4CBD1"/>
<circle cx="63.9566" cy="1614.06" r="4.1703" transform="rotate(-180 63.9566 1614.06)" fill="#E4CBD1"/>
<path d="M93.3186 1228.05L96.4291 1226.51C94.9261 1220.9 88.7526 1213.93 85.8537 1211.14L83.1542 1214.22C87.1376 1216.81 91.5902 1224.52 93.3186 1228.05Z" fill="#F5C9C6"/>
<path d="M93.3186 1779.05L96.4291 1777.51C94.9261 1771.9 88.7526 1764.93 85.8537 1762.14L83.1542 1765.22C87.1376 1767.81 91.5902 1775.52 93.3186 1779.05Z" fill="#F5C9C6"/>
<path d="M244.383 1104.78L245.833 1115.75C250.665 1110.2 255.689 1108.3 257.597 1108.05L256.315 1098.35C250.972 1099.06 246.134 1102.93 244.383 1104.78Z" fill="#D1D5C3"/>
<path d="M244.383 1655.78L245.833 1666.75C250.665 1661.2 255.689 1659.3 257.597 1659.05L256.315 1649.35C250.972 1650.06 246.134 1653.93 244.383 1655.78Z" fill="#D1D5C3"/>
<circle cx="8.1703" cy="227.271" r="4.1703" fill="#CCCFD6"/>
<path d="M158.286 1040.28L147.293 1039C151.499 1045.04 152.107 1050.38 151.884 1052.29L161.603 1053.42C162.225 1048.07 159.651 1042.43 158.286 1040.28Z" fill="#CDCED3"/>
<path d="M158.286 1591.28L147.293 1590C151.499 1596.04 152.107 1601.38 151.884 1603.29L161.603 1604.42C162.225 1599.07 159.651 1593.43 158.286 1591.28Z" fill="#CDCED3"/>
<path d="M286.116 1170.31L289.227 1168.77C287.724 1163.16 281.55 1156.19 278.652 1153.4L275.952 1156.47C279.935 1159.07 284.388 1166.78 286.116 1170.31Z" fill="#CFD6C5"/>
<path d="M286.116 1721.31L289.227 1719.77C287.724 1714.16 281.55 1707.19 278.652 1704.4L275.952 1707.47C279.935 1710.07 284.388 1717.78 286.116 1721.31Z" fill="#CFD6C5"/>
<path d="M5.71295 1062.29L9.65303 1051.94C13.0732 1058.47 17.5256 1061.47 19.3242 1062.15L15.841 1071.29C10.8048 1069.38 6.99053 1064.49 5.71295 1062.29Z" fill="#D1D5C3"/>
<path d="M5.71295 1613.29L9.65303 1602.94C13.0732 1609.47 17.5256 1612.47 19.3242 1613.15L15.841 1622.29C10.8048 1620.38 6.99053 1615.49 5.71295 1613.29Z" fill="#D1D5C3"/>
<path d="M230.5 1025.72L241.493 1027C237.287 1020.96 236.68 1015.62 236.902 1013.71L227.183 1012.58C226.561 1017.93 229.135 1023.57 230.5 1025.72Z" fill="#CDCED3"/>
<path d="M114.359 1072.45L112.435 1075.33C116.541 1079.44 125.373 1082.39 129.276 1083.35L130.078 1079.34C125.33 1079.09 117.621 1074.64 114.359 1072.45Z" fill="#CECFD4"/>
<path d="M114.359 1623.45L112.435 1626.33C116.541 1630.44 125.373 1633.39 129.276 1634.35L130.078 1630.34C125.33 1630.09 117.621 1625.64 114.359 1623.45Z" fill="#CECFD4"/>
<path d="M304.966 1185.88L304.743 1189.34C310.352 1190.85 319.476 1188.99 323.338 1187.87L322.027 1183.99C317.787 1186.15 308.886 1186.15 304.966 1185.88Z" fill="#F7C7C5"/>
<path d="M304.966 1736.88L304.743 1740.34C310.352 1741.85 319.476 1739.99 323.338 1738.87L322.027 1734.99C317.787 1737.15 308.886 1737.15 304.966 1736.88Z" fill="#F7C7C5"/>
<path d="M295.468 1059.95L292.357 1061.49C293.86 1067.1 300.034 1074.07 302.932 1076.86L305.632 1073.78C301.649 1071.19 297.196 1063.48 295.468 1059.95Z" fill="#F5C9C6"/>
<path d="M295.468 1610.95L292.357 1612.49C293.86 1618.1 300.034 1625.07 302.932 1627.86L305.632 1624.79C301.649 1622.19 297.196 1614.48 295.468 1610.95Z" fill="#F5C9C6"/>
<path d="M230.5 2463.72L241.493 2465C237.287 2458.96 236.68 2453.62 236.902 2451.71L227.183 2450.58C226.561 2455.93 229.135 2461.57 230.5 2463.72Z" fill="#CDCED3"/>
<path d="M102.67 1117.7L99.5592 1119.23C101.062 1124.84 107.236 1131.81 110.135 1134.6L112.834 1131.53C108.851 1128.93 104.398 1121.22 102.67 1117.7Z" fill="#CFD6C5"/>
<path d="M102.67 1668.7L99.5592 1670.23C101.062 1675.84 107.236 1682.81 110.135 1685.6L112.834 1682.53C108.851 1679.93 104.398 1672.22 102.67 1668.7Z" fill="#CFD6C5"/>
<path d="M31.6131 1173.41L31.9727 1169.96C26.4272 1168.23 17.2361 1169.73 13.3338 1170.7L14.4906 1174.62C18.812 1172.64 27.7062 1172.98 31.6131 1173.41Z" fill="#F7C7C5"/>
<path d="M31.6131 1724.41L31.9727 1720.96C26.4272 1719.23 17.2361 1720.73 13.3338 1721.7L14.4906 1725.62C18.812 1723.64 27.7062 1723.98 31.6131 1724.41Z" fill="#F7C7C5"/>
<path d="M83.8203 1102.12L84.0436 1098.66C78.4345 1097.15 69.3097 1099.01 65.4484 1100.13L66.7589 1104.01C70.9988 1101.85 79.8998 1101.85 83.8203 1102.12Z" fill="#F7C7C5"/>
<path d="M83.8203 1653.12L84.0436 1649.66C78.4345 1648.15 69.3097 1650.01 65.4484 1651.13L66.7589 1655.01C70.9988 1652.85 79.8998 1652.85 83.8203 1653.12Z" fill="#F7C7C5"/>
<circle cx="8.1703" cy="2101.27" r="4.1703" fill="#CCCFD6"/>
<path d="M357.173 1114.59L356.813 1118.05C362.359 1119.77 371.55 1118.27 375.452 1117.3L374.296 1113.38C369.974 1115.36 361.08 1115.02 357.173 1114.59Z" fill="#F7C7C5"/>
<path d="M357.173 1665.59L356.813 1669.05C362.359 1670.77 371.55 1669.27 375.452 1668.3L374.296 1664.38C369.974 1666.36 361.08 1666.02 357.173 1665.59Z" fill="#F7C7C5"/>
<path d="M128.223 1233.26L129.805 1236.35C135.392 1234.77 142.276 1228.5 145.02 1225.56L141.91 1222.9C139.371 1226.92 131.728 1231.48 128.223 1233.26Z" fill="#E4CBD1"/>
<path d="M128.223 1784.26L129.805 1787.35C135.392 1785.77 142.276 1779.5 145.02 1776.56L141.91 1773.9C139.371 1777.92 131.728 1782.49 128.223 1784.26Z" fill="#E4CBD1"/>
<path d="M260.563 1054.74L258.981 1051.65C253.394 1053.23 246.51 1059.5 243.766 1062.44L246.876 1065.1C249.415 1061.08 257.059 1056.52 260.563 1054.74Z" fill="#E4CBD1"/>
<path d="M260.563 1605.74L258.981 1602.65C253.394 1604.23 246.51 1610.5 243.766 1613.44L246.876 1616.1C249.415 1612.08 257.059 1607.52 260.563 1605.74Z" fill="#E4CBD1"/>
<path d="M319.827 1434.03C320.361 1431.95 322.489 1427.55 326.724 1426.65C332.017 1425.53 335.866 1432.11 332.498 1434.67C329.13 1437.24 324.157 1432.91 325.922 1427.29C327.686 1421.68 335.064 1416.39 345.009 1422.64" stroke="#CFD8C5" stroke-width="2.56634" stroke-linecap="round"/>
<path d="M319.827 1319.03C320.361 1316.95 322.489 1312.55 326.724 1311.65C332.017 1310.53 335.866 1317.11 332.498 1319.67C329.13 1322.24 324.157 1317.91 325.922 1312.29C327.686 1306.68 335.064 1301.39 345.009 1307.64" stroke="#CFD8C5" stroke-width="2.56634" stroke-linecap="round"/>
<path d="M319.827 1870.03C320.361 1867.95 322.489 1863.55 326.724 1862.65C332.017 1861.53 335.866 1868.11 332.498 1870.67C329.13 1873.24 324.157 1868.91 325.922 1863.29C327.686 1857.68 335.064 1852.39 345.009 1858.64" stroke="#CFD8C5" stroke-width="2.56634" stroke-linecap="round"/>
<path d="M383.073 1003.71L379.133 1014.06C375.713 1007.54 371.261 1004.53 369.462 1003.85L372.945 994.706C377.981 996.625 381.796 1001.51 383.073 1003.71Z" fill="#D1D5C3"/>
<path d="M190.386 1463.54C189.852 1461.46 187.724 1457.06 183.489 1456.17C178.196 1455.04 174.347 1461.62 177.715 1464.19C181.083 1466.75 186.056 1462.42 184.291 1456.81C182.527 1451.19 175.149 1445.9 165.204 1452.16" stroke="#F5C8C5" stroke-width="2.56634" stroke-linecap="round"/>
<path d="M190.386 1348.54C189.852 1346.46 187.724 1342.06 183.489 1341.17C178.196 1340.04 174.347 1346.62 177.715 1349.18C181.083 1351.75 186.056 1347.42 184.291 1341.81C182.527 1336.19 175.149 1330.9 165.204 1337.16" stroke="#F5C8C5" stroke-width="2.56634" stroke-linecap="round"/>
<path d="M190.386 1899.54C189.852 1897.46 187.724 1893.06 183.489 1892.17C178.196 1891.04 174.347 1897.62 177.715 1900.19C181.083 1902.75 186.056 1898.42 184.291 1892.81C182.527 1887.19 175.149 1881.9 165.204 1888.16" stroke="#F5C8C5" stroke-width="2.56634" stroke-linecap="round"/>
<path d="M383.073 2441.71L379.133 2452.06C375.713 2445.54 371.261 2442.53 369.462 2441.85L372.945 2432.71C377.981 2434.62 381.796 2439.51 383.073 2441.71Z" fill="#D1D5C3"/>
<path d="M183.895 1420.88C185.828 1421.83 190.552 1423.06 193.985 1420.42C198.275 1417.13 195.773 1409.93 191.634 1410.83C187.495 1411.72 187.561 1418.31 192.976 1420.62C198.391 1422.92 207.207 1420.75 208.906 1409.12" stroke="#E3CACD" stroke-width="2.56634" stroke-linecap="round"/>
<path d="M183.895 1305.88C185.828 1306.83 190.552 1308.06 193.985 1305.42C198.275 1302.13 195.773 1294.93 191.634 1295.83C187.495 1296.72 187.561 1303.31 192.976 1305.62C198.391 1307.92 207.207 1305.75 208.906 1294.12" stroke="#E3CACD" stroke-width="2.56634" stroke-linecap="round"/>
<path d="M183.895 1856.88C185.828 1857.83 190.552 1859.06 193.985 1856.42C198.275 1853.13 195.773 1845.93 191.634 1846.83C187.495 1847.72 187.561 1854.31 192.976 1856.62C198.391 1858.92 207.207 1856.75 208.906 1845.12" stroke="#E3CACD" stroke-width="2.56634" stroke-linecap="round"/>
<circle cx="96.3881" cy="179.153" r="4.1703" fill="#CCCFD6"/>
<path d="M15.2338 1444.25C15.6806 1446.36 17.7541 1451.88 21.9472 1452.95C27.1886 1454.29 34.5628 1447.92 29.1883 1443.93C24.2159 1440.24 19.6452 1446.59 21.1728 1452.28C22.7004 1457.96 33.2655 1463.56 43.4635 1457.73" stroke="#CACFD5" stroke-width="2.56634" stroke-linecap="round"/>
<path d="M15.2338 1329.25C15.6806 1331.36 17.7541 1336.88 21.9472 1337.95C27.1886 1339.29 34.5628 1332.92 29.1883 1328.93C24.2159 1325.24 19.6452 1331.59 21.1728 1337.28C22.7004 1342.96 33.2655 1348.56 43.4635 1342.73" stroke="#CACFD5" stroke-width="2.56634" stroke-linecap="round"/>
<path d="M15.2338 1880.25C15.6806 1882.36 17.7541 1887.88 21.9472 1888.95C27.1886 1890.29 34.5628 1883.92 29.1883 1879.93C24.2159 1876.24 19.6452 1882.59 21.1728 1888.28C22.7004 1893.96 33.2655 1899.56 43.4635 1893.73" stroke="#CACFD5" stroke-width="2.56634" stroke-linecap="round"/>
<path d="M274.427 993.554L276.352 990.667C272.245 986.561 263.413 983.61 259.51 982.647L258.708 986.657C263.456 986.914 271.165 991.362 274.427 993.554Z" fill="#CECFD4"/>
<circle cx="380.616" cy="1410.73" r="4.1703" transform="rotate(-180 380.616 1410.73)" fill="#CCCFD6"/>
<circle cx="380.616" cy="1295.73" r="4.1703" transform="rotate(-180 380.616 1295.73)" fill="#CCCFD6"/>
<circle cx="380.616" cy="1846.73" r="4.1703" transform="rotate(-180 380.616 1846.73)" fill="#CCCFD6"/>
<path d="M274.427 2431.55L276.352 2428.67C272.245 2424.56 263.413 2421.61 259.51 2420.65L258.708 2424.66C263.456 2424.91 271.165 2429.36 274.427 2431.55Z" fill="#CECFD4"/>
<circle cx="292.398" cy="1458.85" r="4.1703" transform="rotate(-180 292.398 1458.85)" fill="#CCCFD6"/>
<circle cx="292.398" cy="1343.85" r="4.1703" transform="rotate(-180 292.398 1343.85)" fill="#CCCFD6"/>
<circle cx="292.398" cy="1894.85" r="4.1703" transform="rotate(-180 292.398 1894.85)" fill="#CCCFD6"/>
<circle cx="96.3881" cy="2053.15" r="4.1703" fill="#CCCFD6"/>
<circle cx="63.9566" cy="1400.06" r="4.1703" transform="rotate(-180 63.9566 1400.06)" fill="#E4CBD1"/>
<circle cx="63.9566" cy="1285.06" r="4.1703" transform="rotate(-180 63.9566 1285.06)" fill="#E4CBD1"/>
<circle cx="63.9566" cy="1836.06" r="4.1703" transform="rotate(-180 63.9566 1836.06)" fill="#E4CBD1"/>
<circle cx="96.3881" cy="2604.15" r="4.1703" fill="#CCCFD6"/>
<path d="M244.383 1441.78L245.833 1452.75C250.665 1447.2 255.689 1445.3 257.597 1445.05L256.315 1435.35C250.972 1436.06 246.134 1439.93 244.383 1441.78Z" fill="#D1D5C3"/>
<path d="M244.383 1326.78L245.833 1337.75C250.665 1332.2 255.689 1330.3 257.597 1330.05L256.315 1320.35C250.972 1321.06 246.134 1324.93 244.383 1326.78Z" fill="#D1D5C3"/>
<path d="M244.383 1877.78L245.833 1888.75C250.665 1883.2 255.689 1881.3 257.597 1881.05L256.315 1871.35C250.972 1872.06 246.134 1875.93 244.383 1877.78Z" fill="#D1D5C3"/>
<path d="M93.3186 1006.05L96.4291 1004.51C94.9261 998.901 88.7526 991.929 85.8537 989.144L83.1542 992.216C87.1376 994.812 91.5902 1002.52 93.3186 1006.05Z" fill="#F5C9C6"/>
<path d="M158.286 1377.28L147.293 1376C151.499 1382.04 152.107 1387.38 151.884 1389.29L161.603 1390.42C162.225 1385.07 159.651 1379.43 158.286 1377.28Z" fill="#CDCED3"/>
<path d="M158.286 1262.28L147.293 1261C151.499 1267.04 152.107 1272.38 151.884 1274.29L161.603 1275.42C162.225 1270.07 159.651 1264.43 158.286 1262.28Z" fill="#CDCED3"/>
<path d="M158.286 1813.28L147.293 1812C151.499 1818.04 152.107 1823.38 151.884 1825.29L161.603 1826.42C162.225 1821.07 159.651 1815.43 158.286 1813.28Z" fill="#CDCED3"/>
<path d="M93.3186 2444.05L96.4291 2442.51C94.9261 2436.9 88.7526 2429.93 85.8537 2427.14L83.1542 2430.22C87.1376 2432.81 91.5902 2440.52 93.3186 2444.05Z" fill="#F5C9C6"/>
<path d="M5.71295 1399.29L9.65303 1388.94C13.0732 1395.47 17.5256 1398.47 19.3242 1399.15L15.841 1408.29C10.8048 1406.38 6.99053 1401.49 5.71295 1399.29Z" fill="#D1D5C3"/>
<path d="M5.71295 1284.29L9.65303 1273.94C13.0732 1280.47 17.5256 1283.47 19.3242 1284.15L15.841 1293.29C10.8048 1291.38 6.99053 1286.49 5.71295 1284.29Z" fill="#D1D5C3"/>
<path d="M5.71295 1835.29L9.65303 1824.94C13.0732 1831.47 17.5256 1834.47 19.3242 1835.15L15.841 1844.29C10.8048 1842.38 6.99053 1837.49 5.71295 1835.29Z" fill="#D1D5C3"/>
<circle cx="324.829" cy="237.938" r="4.1703" fill="#E4CBD1"/>
<path d="M114.359 1409.45L112.435 1412.33C116.541 1416.44 125.373 1419.39 129.276 1420.35L130.078 1416.34C125.33 1416.09 117.621 1411.64 114.359 1409.45Z" fill="#CECFD4"/>
<path d="M114.359 1294.45L112.435 1297.33C116.541 1301.44 125.373 1304.39 129.276 1305.35L130.078 1301.34C125.33 1301.09 117.621 1296.64 114.359 1294.45Z" fill="#CECFD4"/>
<path d="M114.359 1845.45L112.435 1848.33C116.541 1852.44 125.373 1855.39 129.276 1856.35L130.078 1852.34C125.33 1852.09 117.621 1847.64 114.359 1845.45Z" fill="#CECFD4"/>
<path d="M286.116 948.305L289.227 946.767C287.724 941.158 281.55 934.186 278.652 931.401L275.952 934.473C279.935 937.069 284.388 944.776 286.116 948.305Z" fill="#CFD6C5"/>
<path d="M295.468 1396.95L292.357 1398.49C293.86 1404.1 300.034 1411.07 302.932 1413.86L305.632 1410.79C301.649 1408.19 297.196 1400.48 295.468 1396.95Z" fill="#F5C9C6"/>
<path d="M295.468 1281.95L292.357 1283.49C293.86 1289.1 300.034 1296.07 302.932 1298.86L305.632 1295.78C301.649 1293.19 297.196 1285.48 295.468 1281.95Z" fill="#F5C9C6"/>
<path d="M295.468 1832.95L292.357 1834.49C293.86 1840.1 300.034 1847.07 302.932 1849.86L305.632 1846.79C301.649 1844.19 297.196 1836.48 295.468 1832.95Z" fill="#F5C9C6"/>
<path d="M286.116 2386.31L289.227 2384.77C287.724 2379.16 281.55 2372.19 278.652 2369.4L275.952 2372.47C279.935 2375.07 284.388 2382.78 286.116 2386.31Z" fill="#CFD6C5"/>
<path d="M102.67 1454.7L99.5592 1456.23C101.062 1461.84 107.236 1468.81 110.135 1471.6L112.834 1468.53C108.851 1465.93 104.398 1458.22 102.67 1454.7Z" fill="#CFD6C5"/>
<path d="M102.67 1339.7L99.5592 1341.23C101.062 1346.84 107.236 1353.81 110.135 1356.6L112.834 1353.53C108.851 1350.93 104.398 1343.22 102.67 1339.7Z" fill="#CFD6C5"/>
<path d="M102.67 1890.7L99.5592 1892.23C101.062 1897.84 107.236 1904.81 110.135 1907.6L112.834 1904.53C108.851 1901.93 104.398 1894.22 102.67 1890.7Z" fill="#CFD6C5"/>
<circle cx="324.829" cy="2111.94" r="4.1703" fill="#E4CBD1"/>
<path d="M83.8203 1439.12L84.0436 1435.66C78.4345 1434.15 69.3097 1436.01 65.4484 1437.13L66.7589 1441.01C70.9988 1438.85 79.8998 1438.85 83.8203 1439.12Z" fill="#F7C7C5"/>
<path d="M83.8203 1324.12L84.0436 1320.66C78.4345 1319.15 69.3097 1321.01 65.4484 1322.13L66.7589 1326.01C70.9988 1323.85 79.8998 1323.85 83.8203 1324.12Z" fill="#F7C7C5"/>
<path d="M83.8203 1875.12L84.0436 1871.66C78.4345 1870.15 69.3097 1872.01 65.4484 1873.13L66.7589 1877.01C70.9988 1874.85 79.8998 1874.85 83.8203 1875.12Z" fill="#F7C7C5"/>
<path d="M357.173 1451.59L356.813 1455.05C362.359 1456.77 371.55 1455.27 375.452 1454.3L374.296 1450.38C369.974 1452.36 361.08 1452.02 357.173 1451.59Z" fill="#F7C7C5"/>
<path d="M357.173 1336.59L356.813 1340.05C362.359 1341.77 371.55 1340.27 375.452 1339.3L374.296 1335.38C369.974 1337.36 361.08 1337.02 357.173 1336.59Z" fill="#F7C7C5"/>
<path d="M357.173 1887.59L356.813 1891.05C362.359 1892.77 371.55 1891.27 375.452 1890.3L374.296 1886.38C369.974 1888.36 361.08 1888.02 357.173 1887.59Z" fill="#F7C7C5"/>
<path d="M304.966 963.881L304.743 967.344C310.352 968.847 319.476 966.987 323.338 965.869L322.027 961.995C317.787 964.146 308.886 964.149 304.966 963.881Z" fill="#F7C7C5"/>
<path d="M260.563 1391.74L258.981 1388.65C253.394 1390.23 246.51 1396.5 243.766 1399.44L246.876 1402.1C249.415 1398.08 257.059 1393.52 260.563 1391.74Z" fill="#E4CBD1"/>
<path d="M260.563 1276.74L258.981 1273.65C253.394 1275.23 246.51 1281.5 243.766 1284.44L246.876 1287.1C249.415 1283.08 257.059 1278.52 260.563 1276.74Z" fill="#E4CBD1"/>
<path d="M260.563 1827.74L258.981 1824.65C253.394 1826.23 246.51 1832.5 243.766 1835.44L246.876 1838.1C249.415 1834.08 257.059 1829.52 260.563 1827.74Z" fill="#E4CBD1"/>
<path d="M304.966 2401.88L304.743 2405.34C310.352 2406.85 319.476 2404.99 323.338 2403.87L322.027 2399.99C317.787 2402.15 308.886 2402.15 304.966 2401.88Z" fill="#F7C7C5"/>
<path d="M144.403 196.219L142.953 185.247C138.122 190.804 133.097 192.698 131.189 192.95L132.471 202.65C137.814 201.944 142.652 198.069 144.403 196.219Z" fill="#D1D5C3"/>
<path d="M31.6131 951.406L31.9727 947.955C26.4272 946.232 17.2361 947.732 13.3338 948.697L14.4906 952.619C18.812 950.636 27.7062 950.984 31.6131 951.406Z" fill="#F7C7C5"/>
<path d="M31.6131 2389.41L31.9727 2385.96C26.4272 2384.23 17.2361 2385.73 13.3338 2386.7L14.4906 2390.62C18.812 2388.64 27.7062 2388.98 31.6131 2389.41Z" fill="#F7C7C5"/>
<path d="M144.403 2070.22L142.953 2059.25C138.122 2064.8 133.097 2066.7 131.189 2066.95L132.471 2076.65C137.814 2075.94 142.652 2072.07 144.403 2070.22Z" fill="#D1D5C3"/>
<path d="M144.403 2621.22L142.953 2610.25C138.122 2615.8 133.097 2617.7 131.189 2617.95L132.471 2627.65C137.814 2626.94 142.652 2623.07 144.403 2621.22Z" fill="#D1D5C3"/>
<path d="M128.223 1011.26L129.805 1014.35C135.392 1012.77 142.276 1006.5 145.02 1003.56L141.91 1000.9C139.371 1004.92 131.728 1009.48 128.223 1011.26Z" fill="#E4CBD1"/>
<path d="M128.223 2449.26L129.805 2452.35C135.392 2450.77 142.276 2444.5 145.02 2441.56L141.91 2438.9C139.371 2442.92 131.728 2447.48 128.223 2449.26Z" fill="#E4CBD1"/>
<path d="M230.5 260.723L241.493 262C237.287 255.957 236.68 250.622 236.902 248.71L227.183 247.581C226.561 252.934 229.135 258.573 230.5 260.723Z" fill="#CDCED3"/>
<path d="M319.827 1984.03C320.361 1981.95 322.489 1977.55 326.724 1976.65C332.017 1975.53 335.866 1982.11 332.498 1984.67C329.13 1987.24 324.157 1982.91 325.922 1977.29C327.686 1971.68 335.064 1966.39 345.009 1972.64" stroke="#CFD8C5" stroke-width="2.56634" stroke-linecap="round"/>
<path d="M319.827 2535.03C320.361 2532.95 322.489 2528.55 326.724 2527.65C332.017 2526.53 335.866 2533.11 332.498 2535.67C329.13 2538.24 324.157 2533.91 325.922 2528.29C327.686 2522.68 335.064 2517.39 345.009 2523.64" stroke="#CFD8C5" stroke-width="2.56634" stroke-linecap="round"/>
<path d="M230.5 2134.72L241.493 2136C237.287 2129.96 236.68 2124.62 236.902 2122.71L227.183 2121.58C226.561 2126.93 229.135 2132.57 230.5 2134.72Z" fill="#CDCED3"/>
<path d="M190.386 2013.54C189.852 2011.46 187.724 2007.06 183.489 2006.17C178.196 2005.04 174.347 2011.62 177.715 2014.18C181.083 2016.75 186.056 2012.42 184.291 2006.81C182.527 2001.19 175.149 1995.9 165.204 2002.16" stroke="#F5C8C5" stroke-width="2.56634" stroke-linecap="round"/>
<path d="M190.386 2564.54C189.852 2562.46 187.724 2558.06 183.489 2557.17C178.196 2556.04 174.347 2562.62 177.715 2565.18C181.083 2567.75 186.056 2563.42 184.291 2557.81C182.527 2552.19 175.149 2546.9 165.204 2553.16" stroke="#F5C8C5" stroke-width="2.56634" stroke-linecap="round"/>
<path d="M383.073 238.714L379.133 249.056C375.713 242.535 371.261 239.534 369.462 238.849L372.945 229.706C377.981 231.625 381.796 236.511 383.073 238.714Z" fill="#D1D5C3"/>
<path d="M183.895 1970.88C185.828 1971.83 190.552 1973.06 193.985 1970.42C198.275 1967.13 195.773 1959.93 191.634 1960.83C187.495 1961.72 187.561 1968.31 192.976 1970.62C198.391 1972.92 207.207 1970.75 208.906 1959.12" stroke="#E3CACD" stroke-width="2.56634" stroke-linecap="round"/>
<path d="M183.895 2521.88C185.828 2522.83 190.552 2524.06 193.985 2521.42C198.275 2518.13 195.773 2510.93 191.634 2511.83C187.495 2512.72 187.561 2519.31 192.976 2521.62C198.391 2523.92 207.207 2521.75 208.906 2510.12" stroke="#E3CACD" stroke-width="2.56634" stroke-linecap="round"/>
<path d="M383.073 2112.71L379.133 2123.06C375.713 2116.54 371.261 2113.53 369.462 2112.85L372.945 2103.71C377.981 2105.62 381.796 2110.51 383.073 2112.71Z" fill="#D1D5C3"/>
<path d="M15.2338 1994.25C15.6806 1996.36 17.7541 2001.88 21.9472 2002.95C27.1886 2004.29 34.5628 1997.92 29.1883 1993.93C24.2159 1990.24 19.6452 1996.59 21.1728 2002.28C22.7004 2007.96 33.2655 2013.56 43.4635 2007.73" stroke="#CACFD5" stroke-width="2.56634" stroke-linecap="round"/>
<path d="M15.2338 2545.25C15.6806 2547.36 17.7541 2552.88 21.9472 2553.95C27.1886 2555.29 34.5628 2548.92 29.1883 2544.93C24.2159 2541.24 19.6452 2547.59 21.1728 2553.28C22.7004 2558.96 33.2655 2564.56 43.4635 2558.73" stroke="#CACFD5" stroke-width="2.56634" stroke-linecap="round"/>
<path d="M274.427 228.554L276.352 225.667C272.245 221.561 263.413 218.609 259.51 217.647L258.708 221.657C263.456 221.914 271.165 226.362 274.427 228.554Z" fill="#CECFD4"/>
<circle cx="380.616" cy="1960.73" r="4.1703" transform="rotate(-180 380.616 1960.73)" fill="#CCCFD6"/>
<circle cx="380.616" cy="2511.73" r="4.1703" transform="rotate(-180 380.616 2511.73)" fill="#CCCFD6"/>
<path d="M274.427 2102.55L276.352 2099.67C272.245 2095.56 263.413 2092.61 259.51 2091.65L258.708 2095.66C263.456 2095.91 271.165 2100.36 274.427 2102.55Z" fill="#CECFD4"/>
<circle cx="292.398" cy="2008.85" r="4.1703" transform="rotate(-180 292.398 2008.85)" fill="#CCCFD6"/>
<circle cx="292.398" cy="2559.85" r="4.1703" transform="rotate(-180 292.398 2559.85)" fill="#CCCFD6"/>
<path d="M93.3186 241.048L96.4291 239.51C94.9261 233.901 88.7526 226.929 85.8537 224.144L83.1542 227.215C87.1376 229.811 91.5902 237.519 93.3186 241.048Z" fill="#F5C9C6"/>
<circle cx="63.9566" cy="1950.06" r="4.1703" transform="rotate(-180 63.9566 1950.06)" fill="#E4CBD1"/>
<circle cx="63.9566" cy="2501.06" r="4.1703" transform="rotate(-180 63.9566 2501.06)" fill="#E4CBD1"/>
<path d="M93.3186 2115.05L96.4291 2113.51C94.9261 2107.9 88.7526 2100.93 85.8537 2098.14L83.1542 2101.22C87.1376 2103.81 91.5902 2111.52 93.3186 2115.05Z" fill="#F5C9C6"/>
<path d="M244.383 1991.78L245.833 2002.75C250.665 1997.2 255.689 1995.3 257.597 1995.05L256.315 1985.35C250.972 1986.06 246.134 1989.93 244.383 1991.78Z" fill="#D1D5C3"/>
<path d="M244.383 2542.78L245.833 2553.75C250.665 2548.2 255.689 2546.3 257.597 2546.05L256.315 2536.35C250.972 2537.06 246.134 2540.93 244.383 2542.78Z" fill="#D1D5C3"/>
<path d="M286.116 183.305L289.227 181.767C287.724 176.158 281.55 169.186 278.652 166.401L275.952 169.473C279.935 172.069 284.388 179.776 286.116 183.305Z" fill="#CFD6C5"/>
<path d="M158.286 1927.28L147.293 1926C151.499 1932.04 152.107 1937.38 151.884 1939.29L161.603 1940.42C162.225 1935.07 159.651 1929.43 158.286 1927.28Z" fill="#CDCED3"/>
<path d="M158.286 2478.28L147.293 2477C151.499 2483.04 152.107 2488.38 151.884 2490.29L161.603 2491.42C162.225 2486.07 159.651 2480.43 158.286 2478.28Z" fill="#CDCED3"/>
<path d="M286.116 2057.31L289.227 2055.77C287.724 2050.16 281.55 2043.19 278.652 2040.4L275.952 2043.47C279.935 2046.07 284.388 2053.78 286.116 2057.31Z" fill="#CFD6C5"/>
<path d="M286.116 2608.31L289.227 2606.77C287.724 2601.16 281.55 2594.19 278.652 2591.4L275.952 2594.47C279.935 2597.07 284.388 2604.78 286.116 2608.31Z" fill="#CFD6C5"/>
<path d="M5.71295 1949.29L9.65303 1938.94C13.0732 1945.47 17.5256 1948.47 19.3242 1949.15L15.841 1958.29C10.8048 1956.38 6.99053 1951.49 5.71295 1949.29Z" fill="#D1D5C3"/>
<path d="M5.71295 2500.29L9.65303 2489.94C13.0732 2496.47 17.5256 2499.47 19.3242 2500.15L15.841 2509.29C10.8048 2507.38 6.99053 2502.49 5.71295 2500.29Z" fill="#D1D5C3"/>
<path d="M304.966 198.881L304.743 202.344C310.352 203.847 319.476 201.986 323.338 200.868L322.027 196.995C317.787 199.146 308.886 199.149 304.966 198.881Z" fill="#F7C7C5"/>
<path d="M114.359 1959.45L112.435 1962.33C116.541 1966.44 125.373 1969.39 129.276 1970.35L130.078 1966.34C125.33 1966.09 117.621 1961.64 114.359 1959.45Z" fill="#CECFD4"/>
<path d="M114.359 2510.45L112.435 2513.33C116.541 2517.44 125.373 2520.39 129.276 2521.35L130.078 2517.34C125.33 2517.09 117.621 2512.64 114.359 2510.45Z" fill="#CECFD4"/>
<path d="M304.966 2072.88L304.743 2076.34C310.352 2077.85 319.476 2075.99 323.338 2074.87L322.027 2070.99C317.787 2073.15 308.886 2073.15 304.966 2072.88Z" fill="#F7C7C5"/>
<path d="M304.966 2623.88L304.743 2627.34C310.352 2628.85 319.476 2626.99 323.338 2625.87L322.027 2621.99C317.787 2624.15 308.886 2624.15 304.966 2623.88Z" fill="#F7C7C5"/>
<path d="M295.468 1946.95L292.357 1948.49C293.86 1954.1 300.034 1961.07 302.932 1963.86L305.632 1960.78C301.649 1958.19 297.196 1950.48 295.468 1946.95Z" fill="#F5C9C6"/>
<path d="M295.468 2497.95L292.357 2499.49C293.86 2505.1 300.034 2512.07 302.932 2514.86L305.632 2511.78C301.649 2509.19 297.196 2501.48 295.468 2497.95Z" fill="#F5C9C6"/>
<path d="M31.6131 186.406L31.9727 182.955C26.4272 181.232 17.2361 182.731 13.3338 183.697L14.4906 187.619C18.812 185.636 27.7062 185.984 31.6131 186.406Z" fill="#F7C7C5"/>
<path d="M102.67 2004.7L99.5592 2006.23C101.062 2011.84 107.236 2018.81 110.135 2021.6L112.834 2018.53C108.851 2015.93 104.398 2008.22 102.67 2004.7Z" fill="#CFD6C5"/>
<path d="M102.67 2555.7L99.5592 2557.23C101.062 2562.84 107.236 2569.81 110.135 2572.6L112.834 2569.53C108.851 2566.93 104.398 2559.22 102.67 2555.7Z" fill="#CFD6C5"/>
<path d="M31.6131 2060.41L31.9727 2056.96C26.4272 2055.23 17.2361 2056.73 13.3338 2057.7L14.4906 2061.62C18.812 2059.64 27.7062 2059.98 31.6131 2060.41Z" fill="#F7C7C5"/>
<path d="M31.6131 2611.41L31.9727 2607.96C26.4272 2606.23 17.2361 2607.73 13.3338 2608.7L14.4906 2612.62C18.812 2610.64 27.7062 2610.98 31.6131 2611.41Z" fill="#F7C7C5"/>
<path d="M83.8203 1989.12L84.0436 1985.66C78.4345 1984.15 69.3097 1986.01 65.4484 1987.13L66.7589 1991.01C70.9988 1988.85 79.8998 1988.85 83.8203 1989.12Z" fill="#F7C7C5"/>
<path d="M83.8203 2540.12L84.0436 2536.66C78.4345 2535.15 69.3097 2537.01 65.4484 2538.13L66.7589 2542.01C70.9988 2539.85 79.8998 2539.85 83.8203 2540.12Z" fill="#F7C7C5"/>
<path d="M128.223 246.263L129.805 249.351C135.392 247.769 142.276 241.498 145.02 238.56L141.91 235.904C139.371 239.923 131.728 244.485 128.223 246.263Z" fill="#E4CBD1"/>
<path d="M357.173 2001.59L356.813 2005.05C362.359 2006.77 371.55 2005.27 375.452 2004.3L374.296 2000.38C369.974 2002.36 361.08 2002.02 357.173 2001.59Z" fill="#F7C7C5"/>
<path d="M357.173 2552.59L356.813 2556.05C362.359 2557.77 371.55 2556.27 375.452 2555.3L374.296 2551.38C369.974 2553.36 361.08 2553.02 357.173 2552.59Z" fill="#F7C7C5"/>
<path d="M128.223 2120.26L129.805 2123.35C135.392 2121.77 142.276 2115.5 145.02 2112.56L141.91 2109.9C139.371 2113.92 131.728 2118.48 128.223 2120.26Z" fill="#E4CBD1"/>
<path d="M260.563 1941.74L258.981 1938.65C253.394 1940.23 246.51 1946.5 243.766 1949.44L246.876 1952.1C249.415 1948.08 257.059 1943.52 260.563 1941.74Z" fill="#E4CBD1"/>
<path d="M260.563 2492.74L258.981 2489.65C253.394 2491.23 246.51 2497.5 243.766 2500.44L246.876 2503.1C249.415 2499.08 257.059 2494.52 260.563 2492.74Z" fill="#E4CBD1"/>
<path d="M319.827 883.031C320.361 880.946 322.489 876.551 326.724 875.653C332.017 874.53 335.866 881.106 332.498 883.673C329.13 886.239 324.157 881.908 325.922 876.294C327.686 870.681 335.064 865.388 345.009 871.643" stroke="#CFD8C5" stroke-width="2.56634" stroke-linecap="round"/>
<path d="M319.827 2321.03C320.361 2318.95 322.489 2314.55 326.724 2313.65C332.017 2312.53 335.866 2319.11 332.498 2321.67C329.13 2324.24 324.157 2319.91 325.922 2314.29C327.686 2308.68 335.064 2303.39 345.009 2309.64" stroke="#CFD8C5" stroke-width="2.56634" stroke-linecap="round"/>
<path d="M319.827 2206.03C320.361 2203.95 322.489 2199.55 326.724 2198.65C332.017 2197.53 335.866 2204.11 332.498 2206.67C329.13 2209.24 324.157 2204.91 325.922 2199.29C327.686 2193.68 335.064 2188.39 345.009 2194.64" stroke="#CFD8C5" stroke-width="2.56634" stroke-linecap="round"/>
<path d="M190.386 912.543C189.852 910.458 187.724 906.063 183.489 905.165C178.196 904.042 174.347 910.619 177.715 913.185C181.083 915.751 186.056 911.421 184.291 905.807C182.527 900.193 175.149 894.9 165.204 901.155" stroke="#F5C8C5" stroke-width="2.56634" stroke-linecap="round"/>
<path d="M190.386 2350.54C189.852 2348.46 187.724 2344.06 183.489 2343.17C178.196 2342.04 174.347 2348.62 177.715 2351.18C181.083 2353.75 186.056 2349.42 184.291 2343.81C182.527 2338.19 175.149 2332.9 165.204 2339.16" stroke="#F5C8C5" stroke-width="2.56634" stroke-linecap="round"/>
<path d="M190.386 2235.54C189.852 2233.46 187.724 2229.06 183.489 2228.17C178.196 2227.04 174.347 2233.62 177.715 2236.18C181.083 2238.75 186.056 2234.42 184.291 2228.81C182.527 2223.19 175.149 2217.9 165.204 2224.16" stroke="#F5C8C5" stroke-width="2.56634" stroke-linecap="round"/>
<path d="M183.895 869.88C185.828 870.827 190.552 872.062 193.985 869.424C198.275 866.128 195.773 858.93 191.634 859.826C187.495 860.721 187.561 867.315 192.976 869.618C198.391 871.921 207.207 869.745 208.906 858.121" stroke="#E3CACD" stroke-width="2.56634" stroke-linecap="round"/>
<path d="M183.895 2307.88C185.828 2308.83 190.552 2310.06 193.985 2307.42C198.275 2304.13 195.773 2296.93 191.634 2297.83C187.495 2298.72 187.561 2305.31 192.976 2307.62C198.391 2309.92 207.207 2307.75 208.906 2296.12" stroke="#E3CACD" stroke-width="2.56634" stroke-linecap="round"/>
<path d="M183.895 2192.88C185.828 2193.83 190.552 2195.06 193.985 2192.42C198.275 2189.13 195.773 2181.93 191.634 2182.83C187.495 2183.72 187.561 2190.31 192.976 2192.62C198.391 2194.92 207.207 2192.75 208.906 2181.12" stroke="#E3CACD" stroke-width="2.56634" stroke-linecap="round"/>
<path d="M15.2338 893.252C15.6806 895.358 17.7541 900.876 21.9472 901.951C27.1886 903.294 34.5628 896.919 29.1883 892.931C24.2159 889.242 19.6452 895.593 21.1728 901.276C22.7004 906.959 33.2655 912.559 43.4635 906.725" stroke="#CACFD5" stroke-width="2.56634" stroke-linecap="round"/>
<path d="M15.2338 2331.25C15.6806 2333.36 17.7541 2338.88 21.9472 2339.95C27.1886 2341.29 34.5628 2334.92 29.1883 2330.93C24.2159 2327.24 19.6452 2333.59 21.1728 2339.28C22.7004 2344.96 33.2655 2350.56 43.4635 2344.73" stroke="#CACFD5" stroke-width="2.56634" stroke-linecap="round"/>
<path d="M15.2338 2216.25C15.6806 2218.36 17.7541 2223.88 21.9472 2224.95C27.1886 2226.29 34.5628 2219.92 29.1883 2215.93C24.2159 2212.24 19.6452 2218.59 21.1728 2224.28C22.7004 2229.96 33.2655 2235.56 43.4635 2229.73" stroke="#CACFD5" stroke-width="2.56634" stroke-linecap="round"/>
<circle cx="380.616" cy="859.729" r="4.1703" transform="rotate(-180 380.616 859.729)" fill="#CCCFD6"/>
<circle cx="380.616" cy="2297.73" r="4.1703" transform="rotate(-180 380.616 2297.73)" fill="#CCCFD6"/>
<circle cx="380.616" cy="2182.73" r="4.1703" transform="rotate(-180 380.616 2182.73)" fill="#CCCFD6"/>
<circle cx="292.398" cy="907.848" r="4.1703" transform="rotate(-180 292.398 907.848)" fill="#CCCFD6"/>
<circle cx="292.398" cy="2345.85" r="4.1703" transform="rotate(-180 292.398 2345.85)" fill="#CCCFD6"/>
<circle cx="292.398" cy="2230.85" r="4.1703" transform="rotate(-180 292.398 2230.85)" fill="#CCCFD6"/>
<circle cx="63.9566" cy="849.062" r="4.1703" transform="rotate(-180 63.9566 849.062)" fill="#E4CBD1"/>
<circle cx="63.9566" cy="2287.06" r="4.1703" transform="rotate(-180 63.9566 2287.06)" fill="#E4CBD1"/>
<circle cx="63.9566" cy="2172.06" r="4.1703" transform="rotate(-180 63.9566 2172.06)" fill="#E4CBD1"/>
<path d="M244.383 890.781L245.833 901.753C250.665 896.196 255.689 894.302 257.597 894.05L256.315 884.35C250.972 885.056 246.134 888.932 244.383 890.781Z" fill="#D1D5C3"/>
<path d="M244.383 2328.78L245.833 2339.75C250.665 2334.2 255.689 2332.3 257.597 2332.05L256.315 2322.35C250.972 2323.06 246.134 2326.93 244.383 2328.78Z" fill="#D1D5C3"/>
<path d="M244.383 2213.78L245.833 2224.75C250.665 2219.2 255.689 2217.3 257.597 2217.05L256.315 2207.35C250.972 2208.06 246.134 2211.93 244.383 2213.78Z" fill="#D1D5C3"/>
<path d="M158.286 826.277L147.293 825C151.499 831.044 152.107 836.378 151.884 838.29L161.603 839.42C162.225 834.066 159.651 828.428 158.286 826.277Z" fill="#CDCED3"/>
<path d="M158.286 2264.28L147.293 2263C151.499 2269.04 152.107 2274.38 151.884 2276.29L161.603 2277.42C162.225 2272.07 159.651 2266.43 158.286 2264.28Z" fill="#CDCED3"/>
<path d="M158.286 2149.28L147.293 2148C151.499 2154.04 152.107 2159.38 151.884 2161.29L161.603 2162.42C162.225 2157.07 159.651 2151.43 158.286 2149.28Z" fill="#CDCED3"/>
<path d="M5.71295 848.286L9.65303 837.944C13.0732 844.465 17.5256 847.466 19.3242 848.151L15.841 857.294C10.8048 855.376 6.99053 850.49 5.71295 848.286Z" fill="#D1D5C3"/>
<path d="M5.71295 2286.29L9.65303 2275.94C13.0732 2282.47 17.5256 2285.47 19.3242 2286.15L15.841 2295.29C10.8048 2293.38 6.99053 2288.49 5.71295 2286.29Z" fill="#D1D5C3"/>
<path d="M5.71295 2171.29L9.65303 2160.94C13.0732 2167.47 17.5256 2170.47 19.3242 2171.15L15.841 2180.29C10.8048 2178.38 6.99053 2173.49 5.71295 2171.29Z" fill="#D1D5C3"/>
<path d="M114.359 858.446L112.435 861.333C116.541 865.44 125.373 868.391 129.276 869.353L130.078 865.343C125.33 865.087 117.621 860.638 114.359 858.446Z" fill="#CECFD4"/>
<path d="M114.359 2296.45L112.435 2299.33C116.541 2303.44 125.373 2306.39 129.276 2307.35L130.078 2303.34C125.33 2303.09 117.621 2298.64 114.359 2296.45Z" fill="#CECFD4"/>
<path d="M114.359 2181.45L112.435 2184.33C116.541 2188.44 125.373 2191.39 129.276 2192.35L130.078 2188.34C125.33 2188.09 117.621 2183.64 114.359 2181.45Z" fill="#CECFD4"/>
<path d="M295.468 845.952L292.357 847.49C293.86 853.1 300.034 860.072 302.932 862.857L305.632 859.785C301.649 857.189 297.196 849.482 295.468 845.952Z" fill="#F5C9C6"/>
<path d="M295.468 2283.95L292.357 2285.49C293.86 2291.1 300.034 2298.07 302.932 2300.86L305.632 2297.78C301.649 2295.19 297.196 2287.48 295.468 2283.95Z" fill="#F5C9C6"/>
<path d="M295.468 2168.95L292.357 2170.49C293.86 2176.1 300.034 2183.07 302.932 2185.86L305.632 2182.78C301.649 2180.19 297.196 2172.48 295.468 2168.95Z" fill="#F5C9C6"/>
<path d="M102.67 903.695L99.5592 905.233C101.062 910.842 107.236 917.814 110.135 920.599L112.834 917.528C108.851 914.931 104.398 907.224 102.67 903.695Z" fill="#CFD6C5"/>
<path d="M102.67 2341.7L99.5592 2343.23C101.062 2348.84 107.236 2355.81 110.135 2358.6L112.834 2355.53C108.851 2352.93 104.398 2345.22 102.67 2341.7Z" fill="#CFD6C5"/>
<path d="M102.67 2226.7L99.5592 2228.23C101.062 2233.84 107.236 2240.81 110.135 2243.6L112.834 2240.53C108.851 2237.93 104.398 2230.22 102.67 2226.7Z" fill="#CFD6C5"/>
<path d="M83.8203 888.119L84.0436 884.657C78.4345 883.154 69.3097 885.014 65.4484 886.132L66.7589 890.006C70.9988 887.854 79.8998 887.852 83.8203 888.119Z" fill="#F7C7C5"/>
<path d="M83.8203 2326.12L84.0436 2322.66C78.4345 2321.15 69.3097 2323.01 65.4484 2324.13L66.7589 2328.01C70.9988 2325.85 79.8998 2325.85 83.8203 2326.12Z" fill="#F7C7C5"/>
<path d="M83.8203 2211.12L84.0436 2207.66C78.4345 2206.15 69.3097 2208.01 65.4484 2209.13L66.7589 2213.01C70.9988 2210.85 79.8998 2210.85 83.8203 2211.12Z" fill="#F7C7C5"/>
<path d="M357.173 900.594L356.813 904.045C362.359 905.768 371.55 904.269 375.452 903.304L374.296 899.381C369.974 901.364 361.08 901.016 357.173 900.594Z" fill="#F7C7C5"/>
<path d="M357.173 2338.59L356.813 2342.05C362.359 2343.77 371.55 2342.27 375.452 2341.3L374.296 2337.38C369.974 2339.36 361.08 2339.02 357.173 2338.59Z" fill="#F7C7C5"/>
<path d="M357.173 2223.59L356.813 2227.05C362.359 2228.77 371.55 2227.27 375.452 2226.3L374.296 2222.38C369.974 2224.36 361.08 2224.02 357.173 2223.59Z" fill="#F7C7C5"/>
<path d="M260.563 840.737L258.981 837.649C253.394 839.231 246.51 845.503 243.766 848.441L246.876 851.096C249.415 847.077 257.059 842.516 260.563 840.737Z" fill="#E4CBD1"/>
<path d="M260.563 2278.74L258.981 2275.65C253.394 2277.23 246.51 2283.5 243.766 2286.44L246.876 2289.1C249.415 2285.08 257.059 2280.52 260.563 2278.74Z" fill="#E4CBD1"/>
<path d="M260.563 2163.74L258.981 2160.65C253.394 2162.23 246.51 2168.5 243.766 2171.44L246.876 2174.1C249.415 2170.08 257.059 2165.52 260.563 2163.74Z" fill="#E4CBD1"/>
</g>
</svg>
