<svg width="132" height="22" viewBox="0 0 132 22" fill="none" xmlns="http://www.w3.org/2000/svg">
<path d="M10.3216 7.384H0.889625V2.032H2.13763C2.16963 2.208 2.24163 2.4 2.35363 2.608C2.48163 2.816 2.61763 3.016 2.76163 3.208C2.92163 3.4 3.09763 3.56 3.28963 3.688C3.48163 3.8 3.66563 3.848 3.84163 3.832L4.17763 3.424C3.64963 3.312 3.24963 3.056 2.97763 2.656C2.72163 2.24 2.59363 1.856 2.59363 1.504V0.423999H8.71363V2.032H10.3216V7.384ZM15.8416 21.016H10.8256V1.312H15.8416V8.416H16.4656V1.312H21.4816V21.016H16.4656V13.744H15.8416V21.016ZM0.889625 14.608C0.889625 10.08 2.45763 7.816 5.59363 7.816C8.74563 7.816 10.3216 10.08 10.3216 14.608C10.3216 16.848 9.92163 18.528 9.12163 19.648C8.33763 20.784 7.16163 21.352 5.59363 21.352C2.45763 21.352 0.889625 19.104 0.889625 14.608ZM3.64963 13.792L3.21763 14.44C3.88963 14.76 4.64163 14.984 5.47363 15.112C6.32163 15.224 7.11363 15.28 7.84963 15.28V14.56C7.11363 14.56 6.37763 14.496 5.64163 14.368C4.90563 14.224 4.24163 14.032 3.64963 13.792ZM22.8238 21.016V14.704H23.9998V7.624H22.8238V1.312H35.9998V7.624H34.8238V14.704H35.9998V21.016H22.8238ZM43.5598 21.016H36.6238V1.312H43.5598V21.016ZM27.0478 9.712L26.6158 10.36C27.4158 10.728 28.3198 11 29.3278 11.176C30.3358 11.352 31.2958 11.44 32.2078 11.44V10.72C31.2958 10.72 30.3838 10.624 29.4718 10.432C28.5758 10.24 27.7678 10 27.0478 9.712ZM44.8059 21.016V15.184C45.2219 15.008 45.6059 14.624 45.9579 14.032C46.3259 13.44 46.5099 12.56 46.5099 11.392V1.312H52.2699V11.392C52.2699 12.56 52.4379 13.44 52.7739 14.032C53.1099 14.624 53.5179 15.008 53.9979 15.184V21.016C53.4379 21.016 52.9099 20.936 52.4139 20.776C51.9179 20.616 51.4459 20.4 50.9979 20.128C50.5659 19.872 50.1579 19.584 49.7739 19.264C49.4059 18.944 49.0699 18.616 48.7659 18.28L48.2619 18.712C48.4379 18.904 48.6699 19.128 48.9579 19.384C49.2459 19.64 49.5099 19.856 49.7499 20.032C48.9339 20.416 48.1019 20.672 47.2539 20.8C46.4219 20.944 45.6059 21.016 44.8059 21.016ZM52.8459 12.376V5.896C53.1179 5.88 53.3979 5.872 53.6859 5.872C53.9739 5.856 54.2699 5.832 54.5739 5.8V1.312H59.8299V21.016H54.5739V12.304C53.9499 12.352 53.3739 12.376 52.8459 12.376ZM65.6379 21.016H60.3819V1.312H65.6379V21.016ZM67.364 1.312H87.716V4.6H81.884C82.22 5.016 82.86 5.28 83.804 5.392C84.748 5.504 86.052 5.56 87.716 5.56V9.04C86.356 9.04 85.156 9.016 84.116 8.968C83.076 8.92 82.116 8.832 81.236 8.704V9.64H87.716V13.12H67.364V9.64H73.844V8.8C72.884 8.912 71.876 8.984 70.82 9.016C69.764 9.032 68.612 9.04 67.364 9.04V5.56C69.028 5.56 70.324 5.504 71.252 5.392C72.18 5.28 72.812 5.016 73.148 4.6H67.364V1.312ZM75.116 7.144C76.588 8.088 78.204 8.736 79.964 9.088L80.108 8.392C79.212 8.216 78.404 7.96 77.684 7.624C76.964 7.288 76.244 6.912 75.524 6.496L75.116 7.144ZM67.148 17.416C67.148 15.96 67.996 14.944 69.692 14.368C71.388 13.776 74.004 13.48 77.54 13.48C79.3 13.48 80.828 13.552 82.124 13.696C83.436 13.824 84.516 14.048 85.364 14.368C86.228 14.672 86.868 15.08 87.284 15.592C87.716 16.088 87.932 16.696 87.932 17.416C87.932 18.136 87.716 18.744 87.284 19.24C86.868 19.752 86.228 20.16 85.364 20.464C84.516 20.784 83.436 21.008 82.124 21.136C80.828 21.28 79.3 21.352 77.54 21.352C74.004 21.352 71.388 21.056 69.692 20.464C67.996 19.888 67.148 18.872 67.148 17.416ZM74.66 17.152C75.588 17.44 76.564 17.648 77.588 17.776C78.612 17.888 79.58 17.944 80.492 17.944V17.224C79.58 17.224 78.652 17.16 77.708 17.032C76.764 16.888 75.836 16.688 74.924 16.432L74.66 17.152ZM89.4421 16.864V1.312H97.6261V7.12C97.2421 7.248 96.7941 7.352 96.2821 7.432C95.7861 7.496 95.3381 7.536 94.9381 7.552V14.752C95.0981 14.752 95.2981 14.744 95.5381 14.728C95.7941 14.712 96.0501 14.696 96.3061 14.68C96.5621 14.648 96.8101 14.608 97.0501 14.56C97.2901 14.512 97.4821 14.464 97.6261 14.416V20.368C96.6981 20.784 95.3621 20.992 93.6181 20.992C92.0981 20.992 91.0181 20.632 90.3781 19.912C89.7541 19.208 89.4421 18.192 89.4421 16.864ZM95.5141 14.056V8.056C95.8981 8.024 96.3301 7.984 96.8101 7.936C97.3061 7.872 97.7861 7.792 98.2501 7.696V1.312H103.746V21.016H98.2501V13.528C97.7861 13.704 97.3061 13.84 96.8101 13.936C96.3141 14.032 95.8821 14.072 95.5141 14.056ZM109.794 21.016H104.298V1.312H109.794V21.016ZM111.28 11.152C111.28 9.248 111.424 7.648 111.712 6.352C112.016 5.056 112.44 4.008 112.984 3.208C113.544 2.408 114.224 1.832 115.024 1.48C115.84 1.128 116.752 0.951999 117.76 0.951999C118.784 0.951999 119.696 1.128 120.496 1.48C121.296 1.832 121.976 2.408 122.536 3.208C123.096 4.008 123.52 5.056 123.808 6.352C124.112 7.648 124.264 9.248 124.264 11.152C124.264 13.056 124.112 14.656 123.808 15.952C123.52 17.248 123.096 18.296 122.536 19.096C121.976 19.896 121.296 20.472 120.496 20.824C119.696 21.176 118.784 21.352 117.76 21.352C116.752 21.352 115.84 21.176 115.024 20.824C114.224 20.472 113.544 19.896 112.984 19.096C112.44 18.296 112.016 17.248 111.712 15.952C111.424 14.656 111.28 13.056 111.28 11.152ZM131.872 21.016H124.936V1.312H131.872V21.016ZM115.504 9.904L115.072 10.552C115.872 10.92 116.736 11.192 117.664 11.368C118.592 11.544 119.512 11.632 120.424 11.632V10.912C119.512 10.912 118.64 10.816 117.808 10.624C116.992 10.432 116.224 10.192 115.504 9.904Z" fill="white"/>
</svg>
