<svg width="66" height="23" viewBox="0 0 66 23" fill="none" xmlns="http://www.w3.org/2000/svg">
<path d="M12.254 22.916C7.656 22.916 5.126 21.31 5.126 18.604C5.126 15.92 7.436 14.336 12.254 14.336C16.852 14.336 19.382 15.92 19.382 18.604C19.382 21.31 16.852 22.916 12.254 22.916ZM11.11 9.958C11.11 12.444 9.438 13.984 6.072 13.984C2.706 13.984 1.012 12.444 1.012 9.958C1.012 7.472 2.706 5.998 6.072 5.998C9.438 5.998 11.11 7.472 11.11 9.958ZM0.726 5.778V2.676H3.938V0.937999H7.942V2.676H11.022V5.778H0.726ZM15.422 1.686V6.328H16.324V1.686H20.174V13.764H16.324V9.848H15.422V13.5H11.682V1.686H15.422ZM12.254 19.968C13.398 19.968 14.74 19.594 14.74 18.626C14.74 17.658 13.398 17.262 12.254 17.262C11.11 17.262 9.768 17.636 9.768 18.604C9.768 19.572 11.11 19.968 12.254 19.968ZM7.524 9.958C7.524 9.166 6.908 8.726 6.072 8.726C5.236 8.726 4.598 9.166 4.598 9.958C4.598 10.75 5.236 11.234 6.072 11.234C6.908 11.234 7.524 10.75 7.524 9.958ZM36.3323 14.49C34.7703 16.096 33.1863 16.822 31.7783 16.822C29.9743 16.822 28.5663 15.59 27.8843 13.962C26.6523 15.59 25.1563 16.998 23.3743 17.988L20.9103 14.688C25.4203 12.048 27.1363 6.658 28.2583 2.082L32.4163 3.006C32.0203 5.052 31.3603 7.384 30.3703 9.65C30.4143 11.168 31.0523 12.312 31.7783 12.664C31.8883 12.708 31.9983 12.752 32.1303 12.752C32.8123 12.752 33.6923 12.004 34.4183 11.344L36.3323 14.05V1.686H40.5123V8.66H43.5923V12.664H40.5123V21.97H36.3323V14.49ZM58.3323 14.776C56.7703 16.382 55.1863 17.108 53.7783 17.108C52.0403 17.108 50.6763 15.986 49.9723 14.446C48.8063 15.964 47.3983 17.262 45.6603 18.208L43.3283 14.908C46.6943 12.95 48.2123 9.914 49.1143 6.614H44.9343V2.984H57.2763V6.614H53.5143C53.2283 7.846 52.8323 9.056 52.3703 10.222C52.4143 11.102 52.8323 13.06 53.9983 13.06C54.7243 13.06 55.6923 12.356 56.4183 11.696L58.3323 14.336V1.686H62.5123V8.66H65.5923V12.664H62.5123V21.97H58.3323V14.776Z" fill="#111111"/>
</svg>
