<svg xmlns="http://www.w3.org/2000/svg" width="16" height="16" viewBox="0 0 16 16" fill="none">
  <path fill-rule="evenodd" clip-rule="evenodd" d="M3.99985 6C3.26346 6 2.6665 6.59696 2.6665 7.33334V13.3333C2.6665 14.0697 3.26346 14.6667 3.99985 14.6667H11.9998C12.7362 14.6667 13.3332 14.0697 13.3332 13.3333V7.33334C13.3332 6.59696 12.7362 6 11.9998 6H3.99985ZM6.66646 9.33333C6.66646 8.59695 7.26341 8 7.99979 8C8.73617 8 9.33312 8.59695 9.33312 9.33333C9.33312 9.82684 9.06501 10.2577 8.66649 10.4883V11.9999C8.66649 12.3681 8.36801 12.6665 7.99982 12.6665C7.63163 12.6665 7.33315 12.3681 7.33315 11.9999V10.4883C6.9346 10.2578 6.66646 9.82687 6.66646 9.33333Z" fill="#111111"/>
  <path d="M5.3335 4.66667C5.3335 3.19391 6.5274 2 8.00016 2V2C9.47292 2 10.6668 3.19391 10.6668 4.66667V7.33333H5.3335V4.66667Z" stroke="#111111" stroke-width="1.33334"/>
</svg>