<svg width="117" height="20" viewBox="0 0 117 20" fill="none" xmlns="http://www.w3.org/2000/svg">
<path d="M11.04 7.74V9.06H18.36V11.7H0.6V9.06H7.92V7.74H2.74V0.76H16.22V7.74H11.04ZM13.08 3.24H5.88V5.26H13.08V3.24ZM13.28 15.6H2.56V12.94H16.4V19.44H13.28V15.6ZM30.0048 12.22V15.2H37.3248V18.04H19.5648V15.2H26.8848V12.22H21.2248V9.42H23.9248V4.32H21.2248V1.52H35.6648V4.32H32.9648V9.42H35.6648V12.22H30.0048ZM29.9448 4.32H26.9448V9.42H29.9448V4.32ZM52.3897 6.98V0.46H55.4097V19.24H52.3897V9.8H51.0297V18.76H48.1097V0.74H51.0297V6.98H52.3897ZM41.3297 0.48H44.4897V2.82H47.3497V5.6H38.4697V2.82H41.3297V0.48ZM42.9297 6.76C45.1697 6.76 46.7097 8.56 46.7097 11.28V12.38C46.7097 15.1 45.1697 16.9 42.9297 16.9C40.6697 16.9 39.1097 15.1 39.1097 12.38V11.28C39.1097 8.56 40.6697 6.76 42.9297 6.76ZM43.8897 12.16V11.5C43.8897 10.24 43.4897 9.54 42.9097 9.54C42.3297 9.54 41.9297 10.24 41.9297 11.5V12.16C41.9297 13.44 42.3297 14.14 42.9097 14.14C43.4897 14.14 43.8897 13.44 43.8897 12.16ZM72.9345 0.46V3.86H75.4545V6.68H72.9345V10.66H69.8145V0.46H72.9345ZM66.9745 10.46L62.7145 7.56C61.7745 8.76 60.4745 9.84 58.7945 10.84L57.0345 8.32C60.3945 6.34 61.3545 4.28 61.3545 2.18V0.959999H64.5145V2.18C64.5145 3.14 64.3945 4.04 64.1345 4.9L68.7345 7.96L66.9745 10.46ZM64.4345 11.34H68.7145C71.3545 11.34 73.3145 12.88 73.3145 15.4C73.3145 17.9 71.3545 19.44 68.7145 19.44H64.4345C61.8145 19.44 59.8345 17.9 59.8345 15.4C59.8345 12.88 61.8145 11.34 64.4345 11.34ZM64.8545 16.66H68.2945C69.5345 16.66 70.1945 16.16 70.1945 15.38C70.1945 14.58 69.5345 14.1 68.2945 14.1H64.8545C63.6145 14.1 62.9545 14.58 62.9545 15.38C62.9545 16.16 63.6145 16.66 64.8545 16.66ZM114.167 11.72L107.087 7.66C105.727 9.16 103.607 10.52 100.607 11.72L99.2473 9.02C104.447 6.82 106.047 4.64 106.047 2.46V1.22H109.167V2.46C109.167 3.36 109.027 4.24 108.687 5.08L115.767 9.1L114.167 11.72ZM111.947 11.62V15.2H116.387V18.04H98.6273V15.2H103.087V11.62H106.107V15.2H108.927V11.62H111.947Z" fill="white"/>
<path d="M80.3194 18.12L76.1594 1.68H79.3394L82.3594 13.98L85.3394 1.7L88.5394 1.68L91.5194 13.98L94.5394 1.68H97.7194L93.5594 18.12H89.7594L86.9394 6.7L84.1194 18.12H80.3194Z" fill="#07B0C7"/>
</svg>
